<svg xmlns="http://www.w3.org/2000/svg" viewBox="0 0 238.38 177.33"><defs><style>.cls-1{fill:#ffd740;}.cls-2{fill:none;stroke:#212121;stroke-linecap:round;stroke-linejoin:round;stroke-width:7.72px;}</style></defs><title>img4</title><g id="Layer_2" data-name="Layer 2"><g id="Layer_1-2" data-name="Layer 1"><path class="cls-1" d="M203,138.91c-22.08,30.81-71.62,37.6-87.57,28.4C82,148.08,91.88,106.89,114,76.08S180.38,45,195.34,55.74,225,108.1,203,138.91Z"/><path class="cls-2" d="M99.81,160.68l9.6,9.6a10.89,10.89,0,0,0,15.41,0l3-3a10.89,10.89,0,0,0,0-15.41L97,121.05l35.42,35.42a10.89,10.89,0,0,0,15.41,0l3-3a10.89,10.89,0,0,0,0-15.41l-35.42-35.42,40.07,40.07a10.89,10.89,0,0,0,15.41,0l3-3a10.89,10.89,0,0,0,0-15.41L133.92,84.19,174,124.26a10.89,10.89,0,0,0,15.41,0l3-3a10.89,10.89,0,0,0,0-15.41L152.35,65.75,138.55,52"/><path class="cls-2" d="M119.33,32.73,112.65,26a23.36,23.36,0,0,0-15.71-6.83L89,18.95a24.14,24.14,0,0,1-16.24-7.06L67.57,6.7a9.7,9.7,0,0,0-13.71,0L6.7,53.86a9.7,9.7,0,0,0,0,13.71L27.47,88.34"/><path class="cls-2" d="M119.35,32.71,126,26.07A21,21,0,0,1,138.76,20l12.12-1.21a31.21,31.21,0,0,0,19-9h0a13,13,0,0,1,18.4,0l42.47,42.47a13,13,0,0,1,0,18.4L206,95.44,194,107.38,138.57,51.93l-13.2,13.2a13.09,13.09,0,0,1-18.52,0l-.7-.7a13.09,13.09,0,0,1,0-18.52Z"/><rect class="cls-2" x="13.54" y="87.76" width="39.78" height="25.58" rx="12.79" ry="12.79" transform="translate(128.16 148.01) rotate(135)"/><rect class="cls-2" x="25.86" y="108.23" width="46.53" height="25.58" rx="12.79" ry="12.79" transform="translate(169.44 171.86) rotate(135)"/><rect class="cls-2" x="49.71" y="123.93" width="39.78" height="25.58" rx="12.79" ry="12.79" transform="translate(215.49 184.19) rotate(135)"/><rect class="cls-2" x="73.76" y="139.55" width="32.79" height="25.58" rx="12.79" ry="12.79" transform="translate(261.62 196.31) rotate(135)"/></g></g></svg>