<svg xmlns="http://www.w3.org/2000/svg" viewBox="0 0 215.26 207.92"><defs><style>.cls-1{fill:#82b1ff;}.cls-2{fill:#ff5252;}.cls-3{fill:none;stroke:#212121;stroke-linecap:round;stroke-linejoin:round;stroke-width:7.72px;}</style></defs><title>img5</title><g id="Layer_2" data-name="Layer 2"><g id="Layer_1-2" data-name="Layer 1"><path class="cls-1" d="M41.14,144.83c24.28,50.19,66.42,23.29,53,57.05-4.92,12.36-55.93,3.38-80.22-46.81s-12-83.26.94-80.29C39.92,80.51,16.86,94.64,41.14,144.83Z"/><path class="cls-2" d="M119.9,101.28c3.67,11.45.46,22.72-11.58,26.57s-20.31-3.74-24-15.19S83,90.23,95,86.37,116.24,89.82,119.9,101.28Z"/><circle class="cls-3" cx="111.3" cy="103.96" r="18.63"/><circle class="cls-3" cx="111.3" cy="103.96" r="60.85"/><path class="cls-3" d="M170.65,23.34A100.1,100.1,0,1,0,190.55,42.8"/><polygon class="cls-3" points="180.17 33.39 199.25 33.39 181.34 51.3 162.57 51.3 162.25 50.98 162.25 32.21 180.17 14.3 180.17 33.39"/><line class="cls-3" x1="111.3" y1="102.17" x2="162.25" y2="50.98"/></g></g></svg>