<svg width="712" height="729" viewBox="0 0 712 729" fill="none" xmlns="http://www.w3.org/2000/svg">
<path fill-rule="evenodd" clip-rule="evenodd" d="M192.148 592.739C255.538 638.361 331.539 658.813 398.819 646.728C461.862 635.404 514.303 522.85 544.525 472.126C582.9 407.72 678.37 346.802 641.171 266.819C601.847 182.269 494.378 94.4477 386.596 120.948C294.331 143.633 259.062 210.52 204.074 252.459C151.292 292.716 51.7101 329.262 57.0801 400.782C62.6118 474.456 123.905 543.625 192.148 592.739Z" fill="#1353B4"/>
<path fill-rule="evenodd" clip-rule="evenodd" d="M192.148 592.739C255.538 638.361 331.539 658.813 398.819 646.728C461.862 635.404 514.303 522.85 544.525 472.126C582.9 407.72 678.37 346.802 641.171 266.819C601.847 182.269 494.378 94.4477 386.596 120.948C294.331 143.633 259.062 210.52 204.074 252.459C151.292 292.716 51.7101 329.262 57.0801 400.782C62.6118 474.456 123.905 543.625 192.148 592.739Z" fill="url(#paint0_linear)"/>
<rect x="300" y="294" width="56" height="71" fill="#FFEEC2" stroke="black" stroke-width="12"/>
<path d="M332.548 358.913L358.933 328.246L388.359 332.114C398.165 333.403 407.673 336.382 416.461 340.919C453.029 359.796 476 397.507 476 438.659V523H180V438.659C180 397.507 202.971 359.796 239.539 340.919C248.327 336.382 257.835 333.403 267.641 332.114L297.067 328.246L323.452 358.913L328 364.2L332.548 358.913Z" fill="#EEA940" stroke="black" stroke-width="12"/>
<path d="M406.461 330.183C407.084 331.475 407.702 332.777 408.315 334.088C422.409 364.22 419.059 399.293 419.661 432.991C420.192 462.727 420.598 497.056 419.214 529H482V438.659C482 395.262 457.776 355.495 419.214 335.587C415.098 333.463 410.834 331.657 406.461 330.183Z" fill="#333442" fill-opacity="0.2"/>
<path d="M231 384H425C432.732 384 439 390.268 439 398V500H217V398C217 390.268 223.268 384 231 384Z" fill="#475860" stroke="black" stroke-width="12"/>
<path d="M408.5 408.815V424.459" stroke="white" stroke-width="13" stroke-linecap="round"/>
<path d="M471 162H564C568.418 162 572 165.582 572 170V259C572 263.418 568.418 267 564 267H517.5H488.617C487.318 267 486.022 267.127 484.748 267.378L449.039 274.419L458.564 262.616C461.434 259.059 463 254.626 463 250.056V170C463 165.582 466.582 162 471 162Z" fill="white" stroke="black" stroke-width="12"/>
<circle cx="492.5" cy="212.5" r="7.5" fill="black"/>
<circle cx="516.5" cy="212.5" r="7.5" fill="black"/>
<circle cx="540.5" cy="212.5" r="7.5" fill="black"/>
<rect x="217" y="500" width="222" height="24" fill="#475860" stroke="black" stroke-width="12"/>
<path d="M65 524H592" stroke="black" stroke-width="12" stroke-linecap="round"/>
<rect x="252" y="119" width="152" height="199" rx="76" fill="#7C4E4E" stroke="black" stroke-width="12"/>
<path d="M254.258 191.866L254.26 191.866L254.27 191.866C257.145 191.916 260.48 191.974 264.041 191.993C274.712 192.048 288.27 191.765 301.643 189.812C314.809 187.89 329.027 184.187 340.228 176.6C341.665 175.627 343.054 174.588 344.387 173.479C344.412 173.458 344.78 173.22 345.561 173.329C346.344 173.439 346.788 173.802 346.91 173.964C356.552 186.852 374.274 193.416 403.967 192.736C403.989 193.488 404 194.243 404 195V242C404 283.974 369.974 318 328 318C286.026 318 252 283.974 252 242V195C252 193.937 252.022 192.88 252.065 191.828C252.76 191.84 253.492 191.852 254.258 191.866Z" fill="#FFEEC2" stroke="black" stroke-width="12" stroke-linecap="round" stroke-linejoin="round"/>
<path d="M310 230.5C310 224.149 304.851 219 298.5 219C292.149 219 287 224.149 287 230.5" stroke="black" stroke-width="12" stroke-linecap="round"/>
<path d="M368 230.5C368 224.149 362.851 219 356.5 219C350.149 219 345 224.149 345 230.5" stroke="black" stroke-width="12" stroke-linecap="round"/>
<path d="M355.148 319.399C387.094 308.195 410.001 277.773 410.001 242V195C410.001 151.19 375.644 115.404 332.404 113.116C347.206 128.966 359.001 147.577 359.001 166C359.001 173.336 359.414 183.07 359.892 194.32C360.923 218.604 362.254 249.949 360.375 279.469C359.483 293.478 357.867 307.104 355.148 319.399Z" fill="#333442" fill-opacity="0.2"/>
<path d="M237 184V184C237 135.399 276.399 96 325 96H331C379.601 96 419 135.399 419 184V184" stroke="black" stroke-width="12"/>
<path d="M418.75 231V267.5C418.75 275.508 412.258 282 404.25 282V282H362.25H334" stroke="black" stroke-width="12" stroke-linecap="round"/>
<path d="M250 235.42C235.751 232.625 225 220.068 225 205C225 189.932 235.751 177.375 250 174.58V235.42Z" fill="#475860" stroke="black" stroke-width="12" stroke-linecap="round" stroke-linejoin="round"/>
<path d="M405 235.42C419.249 232.625 430 220.068 430 205C430 189.932 419.249 177.375 405 174.58V235.42Z" fill="#475860" stroke="black" stroke-width="12" stroke-linecap="round" stroke-linejoin="round"/>
<defs>
<linearGradient id="paint0_linear" x1="181.601" y1="585.064" x2="530.399" y2="143.425" gradientUnits="userSpaceOnUse">
<stop stop-color="#3DCDD7"/>
<stop offset="1" stop-color="white" stop-opacity="0"/>
</linearGradient>
</defs>
</svg>
