<svg width="791" height="787" viewBox="0 0 791 787" fill="none" xmlns="http://www.w3.org/2000/svg">
<path fill-rule="evenodd" clip-rule="evenodd" d="M236.076 189.276C291.622 129.135 360.905 85.1626 437.096 89.7023C504.74 93.7327 593.519 164.879 635.705 213.087C676.852 260.108 692.352 327.988 676.766 394.161C662.759 453.635 639.294 522.831 590.625 563.996C545.912 601.816 476.63 643.827 421.555 656.893C347.384 674.489 246.539 671.87 199.027 621.184C151.515 570.495 210.688 481.732 217.032 407.778C223.527 332.066 181.316 248.567 236.076 189.276Z" fill="#FFD84F"/>
<path fill-rule="evenodd" clip-rule="evenodd" d="M236.076 189.276C291.622 129.135 360.905 85.1626 437.096 89.7023C504.74 93.7327 593.519 164.879 635.705 213.087C676.852 260.108 692.352 327.988 676.766 394.161C662.759 453.635 639.294 522.831 590.625 563.996C545.912 601.816 476.63 643.827 421.555 656.893C347.384 674.489 246.539 671.87 199.027 621.184C151.515 570.495 210.688 481.732 217.032 407.778C223.527 332.066 181.316 248.567 236.076 189.276Z" fill="url(#paint0_linear)"/>
<path d="M296 172H203C198.582 172 195 175.582 195 180V269C195 273.418 198.582 277 203 277H249.5H278.383C279.682 277 280.978 277.127 282.252 277.378L317.961 284.419L308.436 272.616C305.566 269.059 304 264.626 304 260.056V180C304 175.582 300.418 172 296 172Z" fill="white" stroke="black" stroke-width="12"/>
<circle r="7.5" transform="matrix(-1 0 0 1 274.5 222.5)" fill="black"/>
<circle r="7.5" transform="matrix(-1 0 0 1 250.5 222.5)" fill="black"/>
<circle r="7.5" transform="matrix(-1 0 0 1 226.5 222.5)" fill="black"/>
<path d="M542 237V294C542 335.974 507.974 370 466 370H422C380.026 370 346 335.974 346 294V237C346 182.876 389.876 139 444 139C498.124 139 542 182.876 542 237Z" fill="#7C4E4E" stroke="black" stroke-width="12"/>
<rect x="424" y="333" width="40" height="71" fill="#FFEEC2" stroke="black" stroke-width="12"/>
<path d="M370.258 226.866L370.26 226.866L370.27 226.866C373.145 226.916 376.48 226.974 380.041 226.993C390.712 227.048 404.27 226.765 417.643 224.812C430.809 222.89 445.027 219.187 456.228 211.6C457.665 210.627 459.054 209.588 460.387 208.479C460.412 208.458 460.78 208.22 461.561 208.329C462.344 208.439 462.788 208.802 462.91 208.964C472.552 221.852 490.274 228.416 519.967 227.736C519.989 228.488 520 229.243 520 230V277C520 318.974 485.974 353 444 353C402.026 353 368 318.974 368 277V230C368 228.937 368.022 227.88 368.065 226.828C368.76 226.84 369.492 226.852 370.258 226.866Z" fill="#FFEEC2" stroke="black" stroke-width="12" stroke-linecap="round" stroke-linejoin="round"/>
<path d="M426 265.5C426 259.149 420.851 254 414.5 254C408.149 254 403 259.149 403 265.5" stroke="black" stroke-width="12" stroke-linecap="round"/>
<path d="M484 265.5C484 259.149 478.851 254 472.5 254C466.149 254 461 259.149 461 265.5" stroke="black" stroke-width="12" stroke-linecap="round"/>
<path d="M471.149 354.399C503.094 343.195 526.001 312.773 526.001 277V230C526.001 186.19 491.644 150.404 448.404 148.116C463.206 163.966 475.001 182.577 475.001 201C475.001 208.336 475.414 218.07 475.892 229.32C476.923 253.604 478.254 284.949 476.375 314.469C475.483 328.478 473.867 342.104 471.149 354.399Z" fill="#333442" fill-opacity="0.2"/>
<circle cx="444" cy="316" r="6" stroke="black" stroke-width="10"/>
<path d="M537.222 375.712L538 374.337V372.757V345.5C538 339.149 543.149 334 549.5 334C555.851 334 561 339.149 561 345.5V358.042V362.653L565.456 363.84C576.138 366.685 584 376.432 584 388C584 399.288 576.514 408.844 566.222 411.943L563.141 412.87L562.209 415.95L542.156 482.221C541.504 484.375 540.272 486.175 538.682 487.519L538.579 487.606L538.48 487.698C537.789 488.338 537.001 488.903 536.117 489.373C530.657 492.275 523.878 490.201 520.976 484.741L487.369 421.51C484.467 416.05 486.54 409.271 492.001 406.369C497.461 403.467 504.24 405.54 507.142 411.001L521.451 437.923L528.278 450.769L532.492 436.844L540.79 409.419L541.72 406.347L539.681 403.869C536.128 399.55 534 394.032 534 388C534 383.522 535.172 379.335 537.222 375.712Z" fill="#FFEEC2" stroke="black" stroke-width="12"/>
<rect x="-8.1141" y="2.48221" width="22.3922" height="94" rx="11.1961" transform="matrix(-0.883026 -0.469324 -0.469324 0.883026 399.003 405.623)" fill="#FFEEC2" stroke="black" stroke-width="12"/>
<path d="M447.758 402.227L462.108 387.771L475.545 391.753L494.977 397.51C500.922 399.272 505 404.733 505 410.934V598H382V410.934C382 404.733 386.078 399.272 392.023 397.51L411.455 391.753L424.892 387.771L439.242 402.227L443.5 406.517L447.758 402.227Z" fill="#4865CF" stroke="black" stroke-width="12"/>
<circle cx="473" cy="447" r="14" fill="white"/>
<path d="M466.943 382.946C472.536 404.782 473.5 428.411 473.5 453.5V604H511V410.934C511 402.076 505.174 394.274 496.682 391.758L466.943 382.946Z" fill="#333442" fill-opacity="0.2"/>
<rect x="266.464" y="484.61" width="101" height="129" rx="10" transform="rotate(-40.9134 266.464 484.61)" fill="white" stroke="black" stroke-width="12"/>
<path d="M270.091 473.527C263.413 479.314 262.691 489.419 268.479 496.097L339.865 578.468C345.652 585.146 355.757 585.868 362.435 580.081L372.719 571.968C370.85 570.59 368.938 569.106 366.991 567.527C355.073 557.86 341.779 544.567 328.43 529.848C310.474 510.051 292.4 487.652 277.416 467.979L270.091 473.527Z" fill="#333442" fill-opacity="0.2"/>
<path d="M332.38 548.754C326.305 555.452 312.984 555.968 302.259 546.24C291.533 536.513 290.75 523.206 296.825 516.507C302.9 509.809 316.22 509.294 326.946 519.021C337.671 528.748 338.455 542.056 332.38 548.754Z" fill="#FFEEC2" stroke="black" stroke-width="12"/>
<defs>
<linearGradient id="paint0_linear" x1="579.5" y1="468" x2="221" y2="166" gradientUnits="userSpaceOnUse">
<stop stop-color="#FFC581"/>
<stop offset="1" stop-color="white" stop-opacity="0"/>
</linearGradient>
</defs>
</svg>
