<svg width="217" height="241" viewBox="0 0 217 241" fill="none" xmlns="http://www.w3.org/2000/svg">
<path d="M171.439 212.801C158.13 228.307 141.056 235.482 133.303 228.828C125.55 222.173 144.955 212.132 158.265 196.627C171.574 181.121 173.747 166.021 181.5 172.676C189.253 179.331 184.749 197.295 171.439 212.801Z" fill="#FFDE7D"/>
<path d="M71.93 91.0211C59.905 105.082 40.6296 108.333 28.8773 98.2819C17.125 88.2311 36.1046 63.7608 48.1296 49.7C60.1547 35.6392 101.55 24.9184 113.303 34.9691C125.055 45.0199 83.955 76.9603 71.93 91.0211Z" fill="#D9C5AC"/>
<path d="M27 148.5C27 160.629 29.6332 172.142 34.359 182.5M109 230.5C84.8756 230.5 63.1844 220.082 48.1798 203.5" stroke="black" stroke-width="12" stroke-linecap="round" stroke-linejoin="round"/>
<rect x="101" y="175" width="27" height="33" rx="13.5" fill="white" stroke="black" stroke-width="12"/>
<path d="M18 94V94C18 45.3989 57.3989 6 106 6H112C160.601 6 200 45.3989 200 94V94" stroke="black" stroke-width="12"/>
<path d="M199.75 141V177.5C199.75 185.508 193.258 192 185.25 192V192H143.25H115" stroke="black" stroke-width="12" stroke-linecap="round"/>
<path d="M31 145.42C16.7506 142.625 6 130.068 6 115C6 99.9319 16.7506 87.3747 31 84.5802V145.42Z" fill="#475860" stroke="black" stroke-width="12" stroke-linecap="round" stroke-linejoin="round"/>
<path d="M186 145.42C200.249 142.625 211 130.068 211 115C211 99.9319 200.249 87.3747 186 84.5802V145.42Z" fill="#475860" stroke="black" stroke-width="12" stroke-linecap="round" stroke-linejoin="round"/>
<path d="M91 120.5C91 114.149 85.8513 109 79.5 109C73.1487 109 68 114.149 68 120.5" stroke="black" stroke-width="12" stroke-linecap="round"/>
<path d="M149 120.5C149 114.149 143.851 109 137.5 109C131.149 109 126 114.149 126 120.5" stroke="black" stroke-width="12" stroke-linecap="round"/>
<path d="M32.5 91.5C43.5 89.1667 68.5 79 80.5 57C82.3333 66 95.5 83.6 133.5 82" stroke="black" stroke-width="12" stroke-linecap="round" stroke-linejoin="round"/>
</svg>
