<svg width="870" height="262" viewBox="0 0 870 262" fill="none" xmlns="http://www.w3.org/2000/svg">
<path d="M9.7603 179.19C3.82322 171.826 0.854675 161.259 0.854675 147.489V112.422C0.854675 98.5121 3.82322 87.9101 9.7603 80.6162C15.6974 73.3222 25.2108 69.6752 38.3004 69.6752C50.7122 69.6752 59.7931 72.6442 65.5432 78.5823C71.2933 84.5203 74.1566 93.5676 74.1333 105.724V115.438H48.2228V104.953C48.5636 100.655 47.8285 96.3407 46.084 92.3987C45.2478 91.1845 44.1 90.218 42.7611 89.6009C41.4223 88.9838 39.9419 88.7389 38.4757 88.892C36.8723 88.7231 35.255 89.0367 33.8309 89.7926C32.4067 90.5486 31.2405 91.7124 30.4817 93.1351C28.7149 98.1371 27.9871 103.447 28.3429 108.74V151.732C27.9478 156.835 28.7398 161.96 30.657 166.706C31.4466 168.04 32.5949 169.125 33.971 169.838C35.3471 170.551 36.8958 170.863 38.4406 170.739C39.9452 170.912 41.4681 170.651 42.829 169.986C44.1898 169.321 45.3316 168.28 46.1191 166.986C47.7205 163.177 48.4166 159.047 48.1527 154.923V142.439H74.0631V153.591C74.0631 165.607 71.1647 174.725 65.3679 180.943C59.5711 187.162 50.5486 190.283 38.3004 190.306C25.2108 190.306 15.6974 186.601 9.7603 179.19Z" fill="#212121"/>
<path d="M235.416 71.3584H262.94V82.8955C272.289 73.9885 281.733 69.5349 291.269 69.5349C294.166 69.3625 297.058 69.9438 299.664 71.2221C302.269 72.5004 304.499 74.4321 306.135 76.8289C309.631 82.3281 311.368 88.7625 311.114 95.2742V188.412H283.626V100.745C283.834 97.8687 283.239 94.9915 281.908 92.4337C281.181 91.5146 280.235 90.7923 279.157 90.3329C278.079 89.8735 276.904 89.6915 275.737 89.8037C270.995 90.4545 266.547 92.4779 262.94 95.6249V188.412H235.416V71.3584Z" fill="#212121"/>
<path d="M338.077 179.19C332.139 171.826 329.171 161.306 329.171 147.629V112.562C329.171 98.6524 332.139 88.0505 338.077 80.7565C344.014 73.4626 353.527 69.8156 366.617 69.8156C379.028 69.8156 388.109 72.7846 393.859 78.7227C399.609 84.6607 402.473 93.708 402.449 105.865V115.578H376.539V104.953C376.88 100.655 376.145 96.3408 374.4 92.3988C373.564 91.1846 372.416 90.2181 371.077 89.601C369.738 88.9839 368.258 88.7391 366.792 88.8921C365.189 88.7232 363.571 89.0369 362.147 89.7928C360.723 90.5487 359.557 91.7125 358.798 93.1352C357.031 98.1372 356.303 103.447 356.659 108.74V151.732C356.264 156.835 357.056 161.96 358.973 166.706C359.763 168.04 360.911 169.125 362.287 169.838C363.663 170.551 365.212 170.863 366.757 170.739C368.261 170.913 369.784 170.652 371.145 169.987C372.506 169.322 373.648 168.28 374.435 166.986C376.037 163.177 376.733 159.048 376.469 154.923V142.44H402.379V153.591C402.379 165.607 399.481 174.725 393.684 180.943C387.887 187.162 378.865 190.283 366.617 190.306C353.527 190.306 344.014 186.601 338.077 179.19Z" fill="#212121"/>
<path d="M421.593 29.8391H449.116V52.7379H421.593V29.8391ZM421.593 71.3585H449.116V188.412H421.593V71.3585Z" fill="#212121"/>
<path d="M477.692 179.4C471.614 172.176 468.576 161.481 468.576 147.314V112.457C468.576 98.1496 471.649 87.4191 477.797 80.2654C483.944 73.1117 493.423 69.5349 506.232 69.5349C519.462 69.5349 528.811 73.252 534.281 80.6862C539.75 88.1204 542.485 99.3302 542.485 114.316V131.113H495.994V154.187C495.674 158.456 496.548 162.73 498.518 166.53C499.394 167.819 500.595 168.854 501.998 169.531C503.401 170.208 504.958 170.504 506.512 170.388C508.001 170.511 509.496 170.227 510.836 169.566C512.176 168.905 513.312 167.892 514.12 166.636C515.9 163.101 516.699 159.153 516.435 155.204V145.28H542.345V153.38C542.345 165.397 539.306 174.549 533.229 180.838C527.152 187.126 518.188 190.282 506.337 190.306C493.364 190.306 483.816 186.671 477.692 179.4ZM516.259 117.542V106.39C516.562 101.925 515.793 97.4525 514.015 93.3454C513.078 92.0958 511.857 91.0871 510.453 90.4025C509.049 89.7178 507.502 89.3768 505.94 89.4076C504.379 89.4385 502.847 89.8402 501.471 90.5798C500.095 91.3193 498.915 92.3754 498.027 93.661C496.173 98.7034 495.408 104.082 495.783 109.441V117.542H516.259Z" fill="#212121"/>
<path d="M561.208 71.3584H588.731V82.8954C598.081 73.9884 607.524 69.5349 617.061 69.5349C619.964 69.3563 622.863 69.9346 625.475 71.2131C628.087 72.4917 630.322 74.4268 631.962 76.8288C635.458 82.3281 637.195 88.7624 636.941 95.2741V188.412H609.418V100.745C609.625 97.8686 609.031 94.9914 607.7 92.4337C606.973 91.5146 606.027 90.7923 604.949 90.3328C603.871 89.8734 602.695 89.6915 601.529 89.8036C596.787 90.4544 592.338 92.4778 588.731 95.6248V188.412H561.208V71.3584Z" fill="#212121"/>
<path d="M663.868 179.19C657.931 171.826 654.963 161.306 654.963 147.629V112.562C654.963 98.6524 657.931 88.0505 663.868 80.7565C669.805 73.4626 679.319 69.8156 692.408 69.8156C704.82 69.8156 713.901 72.7846 719.651 78.7227C725.401 84.6607 728.265 93.708 728.241 105.865V115.578H702.331V104.953C702.671 100.655 701.936 96.3408 700.192 92.3988C699.356 91.1846 698.208 90.2181 696.869 89.601C695.53 88.9839 694.05 88.7391 692.584 88.8921C690.963 88.7253 689.33 89.0511 687.898 89.8268C686.466 90.6025 685.3 91.7922 684.554 93.2404C682.788 98.2424 682.06 103.552 682.416 108.845V151.732C682.021 156.835 682.813 161.96 684.73 166.706C685.519 168.04 686.668 169.125 688.044 169.838C689.42 170.551 690.969 170.863 692.513 170.739C694.018 170.913 695.541 170.652 696.902 169.987C698.263 169.322 699.404 168.28 700.192 166.986C701.793 163.177 702.489 159.048 702.225 154.923V142.44H728.136V153.591C728.136 165.607 725.238 174.725 719.441 180.943C713.644 187.162 704.633 190.283 692.408 190.306C679.319 190.306 669.805 186.601 663.868 179.19Z" fill="#212121"/>
<path d="M747.28 29.8391H774.803V52.7379H747.28V29.8391ZM747.28 71.3585H774.803V188.412H747.28V71.3585Z" fill="#212121"/>
<path d="M806.113 186.168C802.289 183.485 799.222 179.862 797.207 175.648C795.141 171.534 794.061 166.996 794.051 162.392C793.694 154.487 795.868 146.674 800.257 140.09C804.357 134.343 809.765 129.655 816.035 126.414C824.162 122.374 832.508 118.791 841.034 115.683V105.584C841.277 101.539 840.618 97.4904 839.106 93.7311C838.382 92.4684 837.308 91.4422 836.014 90.7763C834.72 90.1105 833.261 89.8336 831.813 89.979C825.595 89.979 822.358 94.3039 822.101 102.954L821.68 109.967L795.559 108.95C795.956 95.4611 799.299 85.5021 805.587 79.0731C811.874 72.6441 821.353 69.4413 834.022 69.4647C845.498 69.4647 854.007 72.6091 859.546 78.8978C865.086 85.1865 867.856 94.0584 867.856 105.514V159.657C867.944 169.275 868.623 178.878 869.889 188.412H845.346C843.991 181.118 843.044 175.519 842.506 171.615C841.004 176.687 838.171 181.264 834.302 184.87C830.226 188.566 824.864 190.517 819.366 190.306C814.623 190.358 809.984 188.91 806.113 186.168V186.168ZM836.09 167.337C838.055 165.844 839.792 164.072 841.244 162.077V129.254C835.351 132.441 829.953 136.469 825.221 141.212C821.666 145.18 819.782 150.369 819.962 155.695C819.764 159.283 820.643 162.849 822.486 165.934C823.226 167.117 824.263 168.086 825.493 168.744C826.723 169.403 828.104 169.727 829.499 169.686C831.887 169.671 834.2 168.842 836.055 167.337H836.09Z" fill="#212121"/>
<path d="M185.068 75.3912H121.747C118.176 75.3911 114.64 76.0969 111.343 77.4679C108.045 78.8389 105.051 80.8481 102.533 83.3801C100.014 85.9121 98.0206 88.9169 96.6669 92.2219C95.3131 95.5268 94.6257 99.0668 94.6442 102.638V157.974C94.6442 161.534 95.3453 165.059 96.7073 168.347C98.0693 171.636 100.066 174.624 102.582 177.142C105.099 179.659 108.087 181.655 111.375 183.018C114.663 184.38 118.188 185.081 121.747 185.081H135.771L125.989 253.637L163.856 185.081H185.068C188.627 185.081 192.151 184.38 195.44 183.018C198.728 181.655 201.716 179.659 204.232 177.142C206.749 174.624 208.745 171.636 210.107 168.347C211.469 165.059 212.17 161.534 212.17 157.974V102.638C212.189 99.0668 211.502 95.5268 210.148 92.2219C208.794 88.9169 206.801 85.9121 204.282 83.3801C201.764 80.8481 198.77 78.8389 195.472 77.4679C192.175 76.0969 188.639 75.3911 185.068 75.3912Z" fill="white"/>
<path d="M125.989 261.457C124.869 261.453 123.762 261.209 122.743 260.741C121.725 260.274 120.818 259.594 120.084 258.747C119.35 257.9 118.806 256.905 118.488 255.83C118.17 254.756 118.086 253.625 118.241 252.515L126.761 192.901H121.747C112.448 192.901 103.53 189.206 96.9545 182.63C90.3792 176.054 86.6852 167.134 86.6852 157.834V102.638C86.6852 93.338 90.3792 84.4185 96.9545 77.8422C103.53 71.2658 112.448 67.5713 121.747 67.5713H185.068C194.367 67.5713 203.285 71.2658 209.86 77.8422C216.435 84.4185 220.129 93.338 220.129 102.638V157.974C220.129 167.275 216.435 176.194 209.86 182.77C203.285 189.347 194.367 193.041 185.068 193.041H168.449L132.826 257.424C132.147 258.643 131.156 259.659 129.955 260.368C128.753 261.077 127.384 261.453 125.989 261.457V261.457ZM121.747 83.2112C119.208 83.2203 116.697 83.7306 114.356 84.7128C112.015 85.6949 109.892 87.1296 108.107 88.9345C106.322 90.7394 104.91 92.8791 103.954 95.2307C102.997 97.5823 102.515 100.1 102.533 102.638V157.974C102.542 163.077 104.573 167.969 108.181 171.577C111.789 175.185 116.68 177.217 121.782 177.226H135.806C136.929 177.224 138.039 177.465 139.06 177.93C140.081 178.396 140.991 179.076 141.726 179.924C142.461 180.773 143.005 181.77 143.32 182.847C143.636 183.924 143.716 185.057 143.555 186.168L139.803 212.433L157.019 181.259C157.709 180.011 158.727 178.976 159.963 178.265C161.199 177.554 162.606 177.195 164.031 177.226H185.243C190.297 177.143 195.116 175.08 198.663 171.479C202.211 167.879 204.203 163.029 204.211 157.974V102.638C204.202 97.5353 202.171 92.6439 198.563 89.0355C194.956 85.4271 190.065 83.3958 184.963 83.3865L121.747 83.2112Z" fill="#212121"/>
<path d="M120.064 53.8251C118.638 53.8562 117.232 53.497 115.996 52.7862C114.76 52.0754 113.742 51.0401 113.051 49.7924L103.269 32.2588C102.77 31.3585 102.452 30.3687 102.335 29.3457C102.218 28.3227 102.304 27.2867 102.587 26.2968C102.87 25.3069 103.346 24.3825 103.986 23.5763C104.627 22.7702 105.42 22.0981 106.32 21.5984C107.22 21.0988 108.21 20.7814 109.232 20.6643C110.255 20.5472 111.291 20.6327 112.281 20.916C113.271 21.1993 114.195 21.6748 115.001 22.3154C115.807 22.9559 116.479 23.749 116.978 24.6493L126.761 42.1828C127.436 43.3871 127.78 44.7487 127.759 46.1293C127.737 47.5098 127.351 48.86 126.638 50.0427C125.926 51.2254 124.913 52.1983 123.703 52.8627C122.493 53.527 121.128 53.8591 119.748 53.8251H120.064Z" fill="#212121"/>
<path d="M186.681 53.8251C185.301 53.8591 183.936 53.527 182.726 52.8627C181.516 52.1983 180.503 51.2254 179.791 50.0427C179.079 48.86 178.692 47.5098 178.671 46.1293C178.649 44.7487 178.993 43.3871 179.669 42.1828L189.451 24.6493C189.95 23.749 190.622 22.9559 191.428 22.3154C192.234 21.6748 193.159 21.1993 194.148 20.916C195.138 20.6327 196.174 20.5472 197.197 20.6643C198.22 20.7814 199.209 21.0988 200.109 21.5984C201.01 22.0981 201.802 22.7702 202.443 23.5763C203.083 24.3825 203.559 25.3069 203.842 26.2968C204.125 27.2867 204.211 28.3227 204.094 29.3457C203.977 30.3687 203.659 31.3585 203.16 32.2588L193.378 49.7924C192.713 50.9932 191.745 51.998 190.569 52.7058C189.394 53.4137 188.053 53.7997 186.681 53.8251V53.8251Z" fill="#212121"/>
<path d="M153.407 50.0377C151.334 50.0377 149.345 49.2138 147.879 47.7473C146.413 46.2808 145.589 44.2917 145.589 42.2178V8.76376C145.589 6.68513 146.414 4.69163 147.884 3.22182C149.354 1.752 151.347 0.92627 153.425 0.92627C155.503 0.92627 157.496 1.752 158.966 3.22182C160.436 4.69163 161.261 6.68513 161.261 8.76376V42.0775C161.28 43.1191 161.09 44.154 160.704 45.1213C160.317 46.0886 159.741 46.9689 159.009 47.7105C158.277 48.452 157.405 49.0399 156.443 49.4395C155.481 49.8392 154.449 50.0426 153.407 50.0377V50.0377Z" fill="#212121"/>
</svg>
