<svg xmlns="http://www.w3.org/2000/svg" viewBox="0 0 671.57 754.53"><defs><style>.cls-1{fill:#cfd8dc;}.cls-2{fill:#fafafa;}.cls-3{fill:#ff8f00;}.cls-4{fill:#ffd740;}.cls-5,.cls-7,.cls-8,.cls-9{fill:none;stroke-linecap:round;stroke-width:5px;}.cls-5,.cls-7{stroke:#212121;}.cls-5,.cls-9{stroke-miterlimit:10;}.cls-6{fill:#ff5252;}.cls-7,.cls-8{stroke-linejoin:round;}.cls-8,.cls-9{stroke:#ff8f00;}</style></defs><title>img2</title><g id="Layer_2" data-name="Layer 2"><g id="Layer_1-2" data-name="Layer 1"><path class="cls-1" d="M666,232c33.72,179.84-89.88,486.29-259.29,518.06S99.26,640,65.54,460.14,129.59,67.77,299,36,632.28,52.16,666,232Z"/><path class="cls-2" d="M620,322c36.59,184.74-63.67,377-252,377S0,480.33,0,292,60.67,0,249,0,579,115,620,322Z"/><path class="cls-3" d="M463,348.89c-5.44,1-12.05,9.71-9.59,14.67,1.57,3.16,4.9,5.27,6.1,8.59,1,2.84.27,6,1,9,1.09,4.59,5.57,7.71,10.15,8.82a10.08,10.08,0,0,0,4.92.17c2.38-.63,4.21-2.52,5.7-4.48,5.86-7.67,8.51-17.26,11-26.58a8,8,0,0,0,.4-3.77,6,6,0,0,0-2.58-3.42c-3.9-2.76-9-2.89-13.79-2.91l-12.73-.05Z"/><path class="cls-4" d="M482.43,292.47c-14.3,20-46.4,24.36-56.73,18.4-21.61-12.46-15.23-39.15-.93-59.1s43-20.12,52.72-13.17S496.73,272.51,482.43,292.47Z"/><line class="cls-5" x1="445.96" y1="356.65" x2="481.69" y2="356.65"/><line class="cls-5" x1="448.96" y1="368.63" x2="478.69" y2="368.63"/><line class="cls-5" x1="454.8" y1="380.62" x2="472.85" y2="380.62"/><path class="cls-5" d="M482.8,344.93c0-12.26,4.76-17.87,12.53-26.16l0,0a45.77,45.77,0,1,0-63.06,0l0,0c7.77,8.29,12.53,13.9,12.53,26.16"/><path class="cls-5" d="M470.84,344.93V305.79a6,6,0,1,1,6,6h-26a6,6,0,1,1,6-6v39.13"/><path class="cls-5" d="M430.77,283.54s.34-15.54,13.34-24"/><line class="cls-5" x1="464.15" y1="211.98" x2="464.15" y2="228.22"/><line class="cls-5" x1="500.75" y1="221.77" x2="492.62" y2="235.84"/><line class="cls-5" x1="527.54" y1="248.55" x2="513.47" y2="256.67"/><line class="cls-5" x1="427.56" y1="221.79" x2="435.69" y2="235.85"/><line class="cls-5" x1="400.78" y1="248.58" x2="414.85" y2="256.7"/><path class="cls-6" d="M389.75,469.41c3.32,10.37-1.62,21.23-16.5,26s-24.1-1.56-27.42-11.93.52-20.88,15.4-25.64S386.43,459,389.75,469.41Z"/><rect class="cls-5" x="270.78" y="451.05" width="135.17" height="58.18" rx="29.09" ry="29.09"/><circle class="cls-5" cx="371.89" cy="480.15" r="19.75"/><path d="M304.83,492.42a10.93,10.93,0,0,1-4.38-.85,9.5,9.5,0,0,1-3.4-2.45,11.26,11.26,0,0,1-2.2-3.89,17.59,17.59,0,0,1,0-10.37,10.71,10.71,0,0,1,2.2-3.81,9.43,9.43,0,0,1,3.4-2.36,12.14,12.14,0,0,1,8.75,0,9.34,9.34,0,0,1,3.4,2.38,10.9,10.9,0,0,1,2.2,3.83,15.75,15.75,0,0,1,.78,5.14,16,16,0,0,1-.78,5.19,11.27,11.27,0,0,1-2.2,3.89,9.51,9.51,0,0,1-3.4,2.45A10.93,10.93,0,0,1,304.83,492.42Zm0-4.61a4.42,4.42,0,0,0,3.85-2.09A10,10,0,0,0,310.1,480a9.48,9.48,0,0,0-1.42-5.56,4.71,4.71,0,0,0-7.7,0,9.48,9.48,0,0,0-1.42,5.56,10,10,0,0,0,1.42,5.68A4.42,4.42,0,0,0,304.83,487.81Z"/><path d="M318.59,492V468.31h5.48l6.17,11.77,2.32,5.23h.15q-.18-1.89-.42-4.21a43.81,43.81,0,0,1-.24-4.43v-8.35h5.08V492h-5.48l-6.17-11.8L323.17,475H323q.18,2,.42,4.21a42,42,0,0,1,.24,4.36V492Z"/><path class="cls-1" d="M218.59,268.37c-24.66-2.68-44.54-3.14-39.53-49.23s26-48,50.61-45.32,43.71,9,38.69,55S243.25,271.05,218.59,268.37Z"/><path class="cls-4" d="M229.49,240c-7.52-2.6-9.35-19.39-7.19-26.78,4.51-15.47,14.49-19.13,22-16.53s7.75,18.65,5.22,26S237,242.61,229.49,240Z"/><rect class="cls-5" x="180.79" y="170.17" width="115.68" height="12.97" rx="6.49" ry="6.49"/><rect class="cls-5" x="180.79" y="256.84" width="115.68" height="12.97" rx="6.49" ry="6.49"/><rect class="cls-5" x="188.56" y="183.14" width="100.12" height="73.7"/><polygon class="cls-7" points="241.17 194.98 226.27 222.25 236.07 222.25 231.37 244.99 250.98 215.18 240.19 215.38 241.17 194.98"/><line class="cls-5" x1="206.57" y1="211.98" x2="206.57" y2="224.31"/><line class="cls-5" x1="212.74" y1="218.14" x2="200.41" y2="218.14"/><line class="cls-5" x1="276.84" y1="218.14" x2="264.51" y2="218.14"/><path class="cls-5" d="M200.2,159.52H213a4.88,4.88,0,0,1,4.88,4.88v5.76a0,0,0,0,1,0,0H195.31a0,0,0,0,1,0,0V164.4A4.88,4.88,0,0,1,200.2,159.52Z"/><path class="cls-5" d="M264.29,159.52h12.76a4.88,4.88,0,0,1,4.88,4.88v5.76a0,0,0,0,1,0,0H259.41a0,0,0,0,1,0,0V164.4A4.88,4.88,0,0,1,264.29,159.52Z"/><polyline class="cls-8" points="208.85 288 208.85 480.15 250.68 480.15"/><polyline class="cls-8" points="426.01 480.15 464.15 480.15 464.15 406.59"/><polyline class="cls-9" points="299.7 159.52 364.54 159.52 364.54 377.13 430.77 377.13"/></g></g></svg>