<svg xmlns="http://www.w3.org/2000/svg" viewBox="0 0 174.27 174.27"><defs><style>.cls-1{fill:#cfd8dc;}.cls-2{fill:none;stroke:#212121;stroke-linecap:round;stroke-linejoin:round;stroke-width:7.72px;}</style></defs><title>img6</title><g id="Layer_2" data-name="Layer 2"><g id="Layer_1-2" data-name="Layer 1"><path class="cls-1" d="M49.91,25.55C80.82,2.94,74.08-1,116.33,56.7s50.26,65.55,19.36,88.15S98.21,162.07,56,104.32,19,48.16,49.91,25.55Z"/><polygon class="cls-2" points="46.97 136.28 37.99 127.3 25.71 130.59 22.42 142.86 31.41 151.85 43.68 148.56 46.97 136.28"/><path class="cls-2" d="M46.72,108.6A31.9,31.9,0,1,0,65.9,128.21"/><path class="cls-2" d="M65.9,128.21,128.21,65.9"/><path class="cls-2" d="M72.1,83.23,46.72,108.6"/><path class="cls-2" d="M108.6,46.72,83.22,72.11"/><path class="cls-2" d="M128.21,65.9"/><path class="cls-2" d="M108.6,46.72"/><path class="cls-2" d="M128.21,65.9a31.86,31.86,0,0,0,42.17-31.44l0,0L145.72,45.24,129,28.55,139.78,3.92v0a31.86,31.86,0,0,0-31.2,42.84"/><rect class="cls-2" x="104.18" y="86.25" width="37.87" height="72.29" transform="translate(-50.48 122.91) rotate(-45)"/><path class="cls-2" d="M136.26,145.25h37.87a0,0,0,0,1,0,0v1.86a16.59,16.59,0,0,1-16.59,16.59h-4.69a16.59,16.59,0,0,1-16.59-16.59v-1.86A0,0,0,0,1,136.26,145.25Z" transform="translate(-63.77 154.99) rotate(-45)"/><rect class="cls-2" x="73.23" y="83.82" width="37.87" height="15.25" transform="translate(-37.66 91.95) rotate(-45)"/><polygon class="cls-2" points="14.87 3.86 3.86 14.87 13.77 36.65 27.04 38.04 80.91 91.92 91.92 80.91 38.04 27.04 36.65 13.77 14.87 3.86"/></g></g></svg>