<svg width="1665" height="526" viewBox="0 0 1665 526" fill="none" xmlns="http://www.w3.org/2000/svg">
<path d="M17.0604 341.497C5.6868 327.39 0 307.147 0 280.768V213.591C0 186.944 5.6868 166.634 17.0604 152.661C28.434 138.688 46.6586 131.701 71.7342 131.701C95.5113 131.701 112.908 137.389 123.923 148.764C134.938 160.14 140.424 177.472 140.379 200.76V219.368H90.7425V199.282C91.3953 191.05 89.9871 182.784 86.6453 175.232C85.0434 172.906 82.8444 171.055 80.2796 169.873C77.7148 168.691 74.8789 168.222 72.0701 168.515C68.9985 168.191 65.9002 168.792 63.172 170.24C60.4438 171.688 58.2098 173.918 56.756 176.643C53.3714 186.225 51.9773 196.397 52.6588 206.537V288.897C51.9018 298.672 53.4192 308.491 57.0919 317.582C58.6045 320.137 60.8042 322.216 63.4405 323.581C66.0767 324.947 69.0435 325.545 72.0029 325.307C74.8852 325.64 77.8026 325.14 80.4096 323.866C83.0166 322.592 85.2039 320.598 86.7125 318.119C89.7803 310.821 91.1138 302.911 90.6081 295.01V271.095H140.244V292.457C140.244 315.477 134.692 332.943 123.587 344.856C112.482 356.768 95.1979 362.747 71.7342 362.792C46.6586 362.792 28.434 355.694 17.0604 341.497Z" fill="#212121"/>
<path d="M449.347 134.926H502.073V157.027C519.984 139.964 538.074 131.433 556.344 131.433C561.893 131.102 567.433 132.216 572.424 134.665C577.415 137.114 581.687 140.814 584.822 145.406C591.519 155.94 594.846 168.267 594.36 180.741V359.164H541.701V191.221C542.099 185.711 540.96 180.199 538.41 175.3C537.017 173.539 535.206 172.155 533.141 171.275C531.076 170.395 528.823 170.046 526.589 170.261C517.504 171.508 508.983 175.384 502.073 181.413V359.164H449.347V134.926Z" fill="#212121"/>
<path d="M646.011 341.497C634.638 327.39 628.951 307.237 628.951 281.037V213.86C628.951 187.213 634.638 166.903 646.011 152.93C657.385 138.957 675.609 131.97 700.685 131.97C724.462 131.97 741.858 137.658 752.874 149.033C763.889 160.409 769.374 177.741 769.33 201.029V219.637H719.693V199.282C720.346 191.05 718.938 182.784 715.596 175.233C713.994 172.907 711.795 171.055 709.23 169.873C706.666 168.691 703.83 168.222 701.021 168.515C697.949 168.191 694.851 168.792 692.123 170.24C689.395 171.688 687.161 173.918 685.707 176.643C682.322 186.226 680.928 196.398 681.61 206.537V288.897C680.853 298.673 682.37 308.491 686.043 317.582C687.555 320.137 689.755 322.216 692.391 323.582C695.028 324.948 697.994 325.545 700.954 325.307C703.836 325.64 706.753 325.14 709.36 323.867C711.967 322.593 714.155 320.598 715.663 318.119C718.731 310.821 720.065 302.911 719.559 295.01V271.095H769.195V292.457C769.195 315.477 763.643 332.943 752.538 344.856C741.433 356.769 724.149 362.748 700.685 362.792C675.609 362.792 657.385 355.694 646.011 341.497Z" fill="#212121"/>
<path d="M806.003 55.3878H858.729V99.2547H806.003V55.3878ZM806.003 134.926H858.729V359.165H806.003V134.926Z" fill="#212121"/>
<path d="M913.47 341.9C901.828 328.061 896.006 307.572 896.006 280.432V213.658C896.006 186.249 901.895 165.693 913.671 151.989C925.448 138.285 943.605 131.432 968.144 131.432C993.488 131.432 1011.4 138.553 1021.88 152.795C1032.36 167.037 1037.59 188.511 1037.59 217.218V249.396H948.531V293.599C947.919 301.777 949.593 309.965 953.367 317.246C955.046 319.714 957.345 321.696 960.033 322.994C962.722 324.291 965.704 324.857 968.681 324.635C971.534 324.871 974.397 324.327 976.965 323.061C979.532 321.795 981.707 319.854 983.256 317.447C986.666 310.675 988.197 303.112 987.689 295.547V276.536H1037.33V292.054C1037.33 315.073 1031.5 332.607 1019.86 344.654C1008.22 356.701 991.048 362.747 968.345 362.792C943.493 362.792 925.202 355.828 913.47 341.9ZM987.353 223.399V202.036C987.934 193.482 986.46 184.914 983.055 177.046C981.259 174.652 978.92 172.72 976.23 171.408C973.54 170.097 970.578 169.443 967.586 169.503C964.594 169.562 961.659 170.331 959.024 171.748C956.388 173.165 954.127 175.188 952.427 177.651C948.874 187.31 947.409 197.613 948.128 207.881V223.399H987.353Z" fill="#212121"/>
<path d="M1073.46 134.926H1126.19V157.027C1144.1 139.964 1162.19 131.433 1180.46 131.433C1186.02 131.09 1191.57 132.198 1196.58 134.648C1201.58 137.097 1205.86 140.804 1209 145.405C1215.7 155.94 1219.03 168.267 1218.54 180.741V359.164H1165.82V191.221C1166.21 185.711 1165.07 180.199 1162.52 175.299C1161.13 173.539 1159.32 172.155 1157.26 171.275C1155.19 170.395 1152.94 170.046 1150.7 170.261C1141.62 171.508 1133.1 175.384 1126.19 181.413V359.164H1073.46V134.926Z" fill="#212121"/>
<path d="M1270.13 341.497C1258.75 327.39 1253.07 307.237 1253.07 281.037V213.86C1253.07 187.213 1258.75 166.903 1270.13 152.93C1281.5 138.957 1299.72 131.97 1324.8 131.97C1348.58 131.97 1365.97 137.658 1376.99 149.033C1388 160.409 1393.49 177.741 1393.44 201.029V219.637H1343.81V199.282C1344.46 191.05 1343.05 182.784 1339.71 175.233C1338.11 172.907 1335.91 171.055 1333.35 169.873C1330.78 168.691 1327.94 168.222 1325.14 168.515C1322.03 168.195 1318.9 168.819 1316.16 170.306C1313.42 171.792 1311.18 174.071 1309.75 176.845C1306.37 186.427 1304.98 196.599 1305.66 206.739V288.897C1304.9 298.673 1306.42 308.491 1310.09 317.582C1311.6 320.137 1313.8 322.216 1316.44 323.582C1319.08 324.948 1322.04 325.545 1325 325.307C1327.88 325.64 1330.8 325.14 1333.41 323.867C1336.01 322.593 1338.2 320.598 1339.71 318.119C1342.78 310.821 1344.11 302.911 1343.61 295.01V271.095H1393.24V292.457C1393.24 315.477 1387.69 332.943 1376.59 344.856C1365.48 356.769 1348.22 362.748 1324.8 362.792C1299.72 362.792 1281.5 355.694 1270.13 341.497Z" fill="#212121"/>
<path d="M1429.92 55.3878H1482.64V99.2547H1429.92V55.3878ZM1429.92 134.926H1482.64V359.165H1429.92V134.926Z" fill="#212121"/>
<path d="M1542.62 354.865C1535.3 349.725 1529.42 342.784 1525.56 334.712C1521.6 326.831 1519.53 318.137 1519.52 309.319C1518.83 294.174 1523 279.207 1531.4 266.594C1539.26 255.585 1549.62 246.604 1561.63 240.394C1577.2 232.655 1593.19 225.792 1609.52 219.838V200.491C1609.99 192.742 1608.72 184.987 1605.83 177.785C1604.44 175.366 1602.38 173.4 1599.9 172.125C1597.42 170.849 1594.63 170.319 1591.86 170.597C1579.94 170.597 1573.74 178.882 1573.25 195.453L1572.44 208.888L1522.4 206.94C1523.17 181.099 1529.57 162.021 1541.61 149.705C1553.66 137.389 1571.82 131.253 1596.09 131.298C1618.07 131.298 1634.37 137.322 1644.98 149.369C1655.6 161.416 1660.9 178.412 1660.9 200.357V304.079C1661.07 322.503 1662.37 340.9 1664.8 359.164H1617.78C1615.18 345.191 1613.37 334.465 1612.34 326.986C1609.46 336.702 1604.04 345.47 1596.62 352.379C1588.81 359.459 1578.54 363.197 1568.01 362.792C1558.92 362.891 1550.04 360.117 1542.62 354.865V354.865ZM1600.05 318.791C1603.81 315.931 1607.14 312.536 1609.92 308.714V245.836C1598.63 251.94 1588.29 259.657 1579.23 268.743C1572.42 276.346 1568.81 286.286 1569.15 296.488C1568.77 303.362 1570.46 310.193 1573.99 316.104C1575.41 318.37 1577.39 320.226 1579.75 321.487C1582.1 322.748 1584.75 323.37 1587.42 323.292C1592 323.261 1596.43 321.674 1599.98 318.791H1600.05Z" fill="#212121"/>
<path d="M352.895 142.651H231.591C224.75 142.651 217.977 144.003 211.66 146.63C205.343 149.256 199.608 153.105 194.783 157.956C189.958 162.806 186.14 168.562 183.546 174.894C180.953 181.225 179.636 188.006 179.671 194.848V300.854C179.671 307.674 181.014 314.426 183.624 320.726C186.233 327.027 190.057 332.751 194.878 337.573C199.7 342.395 205.423 346.22 211.722 348.83C218.022 351.439 224.773 352.783 231.591 352.783H258.458L239.719 484.115L312.259 352.783H352.895C359.713 352.783 366.464 351.439 372.764 348.83C379.063 346.22 384.787 342.395 389.608 337.573C394.429 332.751 398.253 327.027 400.863 320.726C403.472 314.426 404.815 307.674 404.815 300.854V194.848C404.85 188.006 403.533 181.225 400.94 174.894C398.347 168.562 394.528 162.806 389.703 157.956C384.878 153.105 379.143 149.256 372.826 146.63C366.509 144.003 359.736 142.651 352.895 142.651Z" fill="white"/>
<path d="M239.719 499.095C237.572 499.087 235.451 498.62 233.5 497.724C231.549 496.829 229.812 495.526 228.406 493.903C227 492.28 225.957 490.375 225.348 488.316C224.739 486.257 224.578 484.092 224.875 481.965L241.196 367.763H231.591C213.778 367.763 196.693 360.686 184.097 348.088C171.501 335.489 164.424 318.402 164.424 300.586V194.848C164.424 177.032 171.501 159.945 184.097 147.347C196.693 134.749 213.778 127.671 231.591 127.671H352.895C370.709 127.671 387.793 134.749 400.389 147.347C412.985 159.945 420.062 177.032 420.062 194.848V300.855C420.062 318.671 412.985 335.758 400.389 348.356C387.793 360.954 370.709 368.032 352.895 368.032H321.058L252.816 491.37C251.516 493.705 249.617 495.652 247.315 497.009C245.013 498.367 242.391 499.087 239.719 499.095V499.095ZM231.591 157.632C226.729 157.65 221.917 158.627 217.433 160.509C212.949 162.39 208.881 165.139 205.461 168.596C202.041 172.054 199.338 176.153 197.506 180.658C195.673 185.163 194.748 189.985 194.784 194.848V300.855C194.802 310.63 198.692 320.001 205.604 326.913C212.515 333.826 221.884 337.717 231.659 337.735H258.525C260.676 337.732 262.801 338.192 264.758 339.084C266.715 339.976 268.456 341.279 269.865 342.904C271.273 344.53 272.315 346.439 272.92 348.503C273.524 350.567 273.678 352.737 273.369 354.865L266.182 405.181L299.161 345.46C300.483 343.07 302.434 341.087 304.801 339.725C307.169 338.364 309.864 337.675 312.595 337.735H353.231C362.911 337.577 372.143 333.623 378.939 326.726C385.735 319.828 389.552 310.538 389.568 300.855V194.848C389.55 185.073 385.659 175.702 378.748 168.79C371.836 161.877 362.468 157.986 352.693 157.968L231.591 157.632Z" fill="#212121"/>
<path d="M228.367 101.338C225.637 101.397 222.942 100.709 220.574 99.3473C218.206 97.9856 216.256 96.0024 214.934 93.6121L196.194 60.0233C195.237 58.2987 194.629 56.4023 194.405 54.4427C194.181 52.483 194.345 50.4983 194.887 48.6019C195.43 46.7056 196.341 44.9347 197.568 43.3904C198.794 41.8461 200.313 40.5585 202.038 39.6014C203.762 38.6442 205.658 38.0361 207.618 37.8118C209.577 37.5875 211.561 37.7514 213.457 38.2941C215.354 38.8368 217.124 39.7477 218.668 40.9748C220.212 42.2019 221.5 43.7211 222.457 45.4458L241.196 79.0346C242.49 81.3416 243.149 83.9501 243.108 86.5947C243.067 89.2394 242.326 91.826 240.962 94.0916C239.597 96.3573 237.657 98.2212 235.339 99.4939C233.02 100.767 230.407 101.403 227.763 101.338H228.367Z" fill="#212121"/>
<path d="M355.985 101.338C353.341 101.403 350.727 100.767 348.409 99.4939C346.09 98.2212 344.15 96.3573 342.786 94.0916C341.421 91.826 340.68 89.2394 340.639 86.5947C340.598 83.9501 341.258 81.3416 342.551 79.0346L361.291 45.4458C362.248 43.7211 363.535 42.2019 365.079 40.9748C366.623 39.7477 368.394 38.8368 370.29 38.2941C372.186 37.7514 374.17 37.5875 376.13 37.8118C378.089 38.0361 379.985 38.6442 381.71 39.6014C383.434 40.5585 384.953 41.8461 386.18 43.3904C387.407 44.9347 388.318 46.7056 388.86 48.6019C389.403 50.4983 389.567 52.483 389.342 54.4427C389.118 56.4023 388.51 58.2987 387.553 60.0233L368.813 93.6121C367.541 95.9124 365.685 97.8373 363.434 99.1934C361.182 100.549 358.613 101.289 355.985 101.338V101.338Z" fill="#212121"/>
<path d="M292.243 94.0821C288.271 94.0821 284.461 92.5038 281.652 89.6944C278.843 86.885 277.265 83.0746 277.265 79.1015V15.0142C277.265 11.0322 278.847 7.21325 281.662 4.39755C284.477 1.58185 288.296 0 292.277 0C296.258 0 300.077 1.58185 302.892 4.39755C305.707 7.21325 307.289 11.0322 307.289 15.0142V78.8328C307.325 80.8283 306.961 82.8107 306.22 84.6638C305.48 86.5169 304.376 88.2033 302.974 89.6239C301.573 91.0444 299.901 92.1706 298.059 92.9362C296.216 93.7018 294.239 94.0914 292.243 94.0821V94.0821Z" fill="#212121"/>
<path d="M996.622 420.229V435.478H978.218V492.781H960.486V435.478H952.762V420.229H960.486V418.146C960.486 400.412 968.076 391.275 985.54 391.275C990.555 391.531 995.519 392.412 1000.32 393.895V409.413H997.965C994.717 407.567 991.02 406.66 987.286 406.793C986.065 406.685 984.834 406.841 983.679 407.252C982.523 407.662 981.469 408.316 980.59 409.171C979.71 410.025 979.025 411.059 978.581 412.202C978.137 413.345 977.944 414.571 978.017 415.795V420.229H996.622Z" fill="#6A6A6A"/>
<path d="M1006.23 467.455V420.431H1023.82V465.843C1023.82 472.561 1026.98 478.472 1034.77 478.472C1041.21 478.161 1047.43 476.093 1052.77 472.493V420.229H1070.37V492.781H1053.38V488.213C1046.89 491.871 1039.66 494.008 1032.22 494.46C1028.71 494.511 1025.22 493.84 1021.98 492.487C1018.73 491.135 1015.8 489.131 1013.37 486.599C1010.93 484.067 1009.04 481.061 1007.81 477.768C1006.58 474.475 1006.04 470.965 1006.23 467.455V467.455Z" fill="#6A6A6A"/>
<path d="M1154.6 445.689V492.714H1137V447.503C1137 440.785 1133.84 434.874 1126.05 434.874C1119.62 435.185 1113.39 437.253 1108.05 440.853V492.781H1090.45V420.229H1107.45V424.931C1113.94 421.273 1121.17 419.137 1128.6 418.684C1132.14 418.561 1135.66 419.184 1138.93 420.512C1142.21 421.839 1145.17 423.842 1147.62 426.389C1150.07 428.936 1151.96 431.971 1153.16 435.297C1154.37 438.622 1154.86 442.163 1154.6 445.689V445.689Z" fill="#6A6A6A"/>
<path d="M1283.36 435.344H1281.01C1277.49 434.466 1273.82 434.335 1270.25 434.96C1266.67 435.585 1263.27 436.951 1260.25 438.971V492.713H1242.59V420.229H1259.58V424.931C1266.85 420.998 1274.96 418.856 1283.22 418.684L1283.36 435.344Z" fill="#6A6A6A"/>
<path d="M1331.92 486.13C1329.38 488.756 1326.35 490.846 1322.99 492.277C1319.63 493.708 1316.02 494.45 1312.37 494.46C1309.12 494.641 1305.87 494.163 1302.81 493.054C1299.75 491.945 1296.95 490.227 1294.57 488.005C1292.19 485.783 1290.29 483.103 1288.97 480.125C1287.66 477.147 1286.96 473.934 1286.92 470.679C1286.8 464.851 1288.89 459.194 1292.76 454.836C1296.64 450.479 1302.01 447.74 1307.81 447.167L1331.58 443.741C1331.05 436.687 1319.96 434.202 1315.13 434.202C1308.49 434.281 1301.95 435.745 1295.92 438.501H1293.97V422.311C1300.91 420.111 1308.12 418.89 1315.4 418.684C1331.99 418.684 1348.17 424.931 1348.98 443.203V492.78H1331.92V486.13ZM1315.6 478.942C1321.16 478.711 1326.57 476.994 1331.25 473.971V457.579C1325.27 458.654 1319.22 459.259 1313.11 460.468C1310.8 460.606 1308.62 461.634 1307.05 463.336C1305.47 465.038 1304.61 467.284 1304.65 469.604C1304.65 476.456 1309.75 478.942 1315.6 478.942Z" fill="#6A6A6A"/>
<path d="M1387.27 413.176H1369.53V395.844H1387.27V413.176ZM1387.27 492.781H1369.67V420.229H1387.27V492.781Z" fill="#6A6A6A"/>
<path d="M1404.59 490.43V475.18H1406.81C1413.26 477.608 1420.07 478.926 1426.96 479.077C1431.93 479.077 1440.39 478.136 1440.39 471.351C1440.39 467.589 1435.02 465.843 1431.66 464.634C1425.68 462.715 1419.8 460.472 1414.06 457.916C1410.87 456.108 1408.24 453.463 1406.44 450.267C1404.64 447.071 1403.75 443.444 1403.86 439.778C1403.86 425.939 1416.75 418.886 1428.77 419.02C1436.36 419.183 1443.88 420.497 1451.07 422.916V437.359H1448.72C1443.04 435.282 1437.04 434.169 1430.99 434.068C1428.24 434.068 1420.45 434.605 1420.45 438.77C1420.45 440.987 1424.48 443.204 1427.5 444.144C1433.81 446.12 1440 448.476 1446.04 451.198C1449.53 452.966 1452.43 455.711 1454.38 459.099C1456.34 462.486 1457.26 466.37 1457.05 470.276C1457.05 486.869 1441.67 494.124 1426.49 494.124C1419.05 494.027 1411.66 492.781 1404.59 490.43V490.43Z" fill="#6A6A6A"/>
<path d="M1490.7 413.176H1472.97V395.844H1490.7V413.176ZM1490.7 492.781H1472.97V420.229H1490.57L1490.7 492.781Z" fill="#6A6A6A"/>
<path d="M1576.94 445.689V492.714H1559.35V447.503C1559.35 440.785 1556.19 434.874 1548.4 434.874C1541.96 435.185 1535.74 437.253 1530.4 440.853V492.781H1512.8V420.229H1529.79V424.931C1536.28 421.275 1543.52 419.139 1550.95 418.684C1554.48 418.561 1558 419.184 1561.28 420.512C1564.56 421.839 1567.52 423.842 1569.97 426.389C1572.42 428.936 1574.31 431.971 1575.51 435.297C1576.71 438.622 1577.2 442.163 1576.94 445.689V445.689Z" fill="#6A6A6A"/>
<path d="M1658.08 489.153C1658.08 514.882 1645.19 525.832 1620.87 525.966C1613.55 525.768 1606.33 524.219 1599.58 521.398V506.216H1601.8C1607.87 508.843 1614.39 510.301 1621.01 510.516C1631.69 510.516 1640.55 504.268 1640.55 494.998V490.833C1636.29 493.231 1631.47 494.438 1626.58 494.326C1621.72 494.393 1616.9 493.428 1612.45 491.494C1607.99 489.56 1603.99 486.701 1600.72 483.107C1595.29 475.813 1592.57 466.863 1593 457.781C1592.73 449.595 1594.63 441.484 1598.5 434.269C1601.74 429.176 1606.28 425.048 1611.66 422.317C1617.03 419.587 1623.05 418.355 1629.07 418.751H1640.28C1645.02 418.787 1649.54 420.692 1652.88 424.052C1656.21 427.412 1658.08 431.954 1658.08 436.688V489.153ZM1636.32 434.336H1630.07C1625.02 434.019 1620.05 435.709 1616.24 439.039C1612.23 444.394 1610.36 451.054 1611 457.714C1610.78 462.907 1612.03 468.056 1614.62 472.56C1616.02 474.815 1618.02 476.638 1620.39 477.824C1622.76 479.01 1625.42 479.514 1628.06 479.278C1632.37 479.269 1636.66 478.705 1640.82 477.599V438.636C1640.84 438.048 1640.74 437.463 1640.52 436.918C1640.29 436.373 1639.96 435.882 1639.53 435.476C1639.11 435.07 1638.6 434.758 1638.05 434.562C1637.5 434.365 1636.91 434.289 1636.32 434.336V434.336Z" fill="#6A6A6A"/>
<path d="M1199.73 494.863C1193.79 495.167 1187.87 493.883 1182.58 491.145C1177.29 488.406 1172.83 484.311 1169.64 479.278C1165.79 472.028 1163.87 463.907 1164.07 455.699C1163.78 446.5 1166.51 437.46 1171.86 429.97C1175.04 426.344 1178.97 423.456 1183.38 421.506C1187.78 419.557 1192.56 418.594 1197.38 418.684C1202.34 418.453 1207.26 419.717 1211.49 422.311V391.208H1229.15V476.994C1229.17 479.311 1228.73 481.609 1227.86 483.755C1226.99 485.902 1225.7 487.855 1224.07 489.503C1222.44 491.15 1220.5 492.46 1218.37 493.357C1216.23 494.254 1213.94 494.72 1211.62 494.729L1199.73 494.863ZM1211.42 436.351C1207.37 435.263 1203.19 434.654 1199 434.538C1196.37 434.416 1193.76 434.969 1191.4 436.145C1189.05 437.321 1187.04 439.081 1185.56 441.255C1183.17 445.702 1182.05 450.724 1182.34 455.766C1181.71 462.479 1183.5 469.195 1187.38 474.71C1191.26 477.928 1196.25 479.516 1201.28 479.144H1207.12C1208.2 479.144 1209.24 478.724 1210.02 477.972C1210.8 477.219 1211.25 476.194 1211.29 475.113L1211.42 436.351Z" fill="#999999"/>
</svg>
