<svg xmlns="http://www.w3.org/2000/svg" viewBox="0 0 247.89 78.3"><defs><style>.cls-1{fill:#212121;}.cls-2{fill:#ffd740;}.cls-3{fill:#999;}.cls-4{fill:#d9d9d9;}</style></defs><title>logo</title><g id="Layer_2" data-name="Layer 2"><g id="Layer_1-2" data-name="Layer 1"><path class="cls-1" d="M2.54,50.83Q0,47.68,0,41.79v-10q0-5.95,2.54-9.07t8.14-3.12q5.31,0,7.77,2.54t2.45,7.74v2.77H13.51V29.66a7.4,7.4,0,0,0-.61-3.58,2.34,2.34,0,0,0-2.17-1,2.31,2.31,0,0,0-2.28,1.21,11.12,11.12,0,0,0-.61,4.45V43a9.45,9.45,0,0,0,.66,4.27,2.36,2.36,0,0,0,2.22,1.15,2.26,2.26,0,0,0,2.19-1.07,7.62,7.62,0,0,0,.58-3.44V40.35h7.39v3.18q0,5.14-2.48,7.8T10.68,54Q5.08,54,2.54,50.83Z"/><path class="cls-1" d="M66.9,20.08h7.85v3.29q4-3.81,8.08-3.81a4.79,4.79,0,0,1,4.24,2.08,9.14,9.14,0,0,1,1.42,5.26V53.46H80.65v-25a4.44,4.44,0,0,0-.49-2.37,2,2,0,0,0-1.76-.75A7,7,0,0,0,74.75,27V53.46H66.9Z"/><path class="cls-1" d="M96.18,50.83q-2.54-3.15-2.54-9v-10q0-5.95,2.54-9.07t8.14-3.12q5.31,0,7.77,2.54t2.45,7.74v2.77h-7.39V29.66a7.4,7.4,0,0,0-.61-3.58,2.34,2.34,0,0,0-2.17-1,2.31,2.31,0,0,0-2.28,1.21,11.12,11.12,0,0,0-.61,4.45V43a9.45,9.45,0,0,0,.66,4.27,2.36,2.36,0,0,0,2.22,1.15,2.26,2.26,0,0,0,2.19-1.07,7.62,7.62,0,0,0,.58-3.44V40.35h7.39v3.18q0,5.14-2.48,7.8T104.32,54Q98.72,54,96.18,50.83Z"/><path class="cls-1" d="M120,8.24h7.85v6.53H120Zm0,11.84h7.85V53.46H120Z"/><path class="cls-1" d="M136,50.89q-2.6-3.09-2.6-9.15V31.8q0-6.12,2.63-9.18t8.11-3.06q5.66,0,8,3.18t2.34,9.59v4.79H141.22V43.7a6.58,6.58,0,0,0,.72,3.52,2.53,2.53,0,0,0,2.28,1.1,2.35,2.35,0,0,0,2.17-1.07,6.31,6.31,0,0,0,.66-3.26V41.16h7.39v2.31q0,5.14-2.6,7.83T144.17,54Q138.62,54,136,50.89Zm11-17.64V30.07a8,8,0,0,0-.64-3.72,2.81,2.81,0,0,0-4.56.09,10.84,10.84,0,0,0-.64,4.5v2.31Z"/><path class="cls-1" d="M159.82,20.08h7.85v3.29q4-3.81,8.08-3.81A4.79,4.79,0,0,1,180,21.64a9.14,9.14,0,0,1,1.42,5.26V53.46h-7.85v-25a4.44,4.44,0,0,0-.49-2.37,2,2,0,0,0-1.76-.75A7,7,0,0,0,167.67,27V53.46h-7.85Z"/><path class="cls-1" d="M189.1,50.83q-2.54-3.15-2.54-9v-10q0-5.95,2.54-9.07t8.14-3.12q5.31,0,7.77,2.54t2.45,7.74v2.77h-7.39V29.66a7.4,7.4,0,0,0-.61-3.58,2.34,2.34,0,0,0-2.17-1A2.31,2.31,0,0,0,195,26.32a11.12,11.12,0,0,0-.61,4.45V43a9.45,9.45,0,0,0,.66,4.27,2.36,2.36,0,0,0,2.22,1.15,2.26,2.26,0,0,0,2.19-1.07,7.62,7.62,0,0,0,.58-3.44V40.35h7.39v3.18q0,5.14-2.48,7.8T197.24,54Q191.64,54,189.1,50.83Z"/><path class="cls-1" d="M212.89,8.24h7.85v6.53h-7.85Zm0,11.84h7.85V53.46h-7.85Z"/><path class="cls-1" d="M229.67,52.82a7.75,7.75,0,0,1-2.54-3,8.46,8.46,0,0,1-.9-3.78A10.6,10.6,0,0,1,228,39.68a12.68,12.68,0,0,1,4.5-3.9,69.44,69.44,0,0,1,7.13-3.06V29.84a7.8,7.8,0,0,0-.55-3.38A2.15,2.15,0,0,0,237,25.39q-2.66,0-2.77,3.7l-.12,2-7.45-.29q.17-5.77,2.86-8.52t8.11-2.74q4.91,0,7.28,2.69t2.37,7.59V45.26a66.9,66.9,0,0,0,.58,8.2h-7q-.58-3.12-.81-4.79a8.45,8.45,0,0,1-2.34,3.78A6,6,0,0,1,233.45,54,6.42,6.42,0,0,1,229.67,52.82Zm8.55-5.37a7.22,7.22,0,0,0,1.47-1.5V36.59A19.67,19.67,0,0,0,235.12,40a5.89,5.89,0,0,0-1.5,4.13,5.14,5.14,0,0,0,.72,2.92,2.28,2.28,0,0,0,2,1.07A3,3,0,0,0,238.21,47.45Z"/><path class="cls-2" d="M52.54,21.23H34.48A7.73,7.73,0,0,0,26.75,29V44.78a7.73,7.73,0,0,0,7.73,7.73h4L35.69,72.06l10.8-19.55h6.05a7.73,7.73,0,0,0,7.73-7.73V29A7.73,7.73,0,0,0,52.54,21.23Z"/><path class="cls-1" d="M35.69,74.29a2.24,2.24,0,0,1-2.21-2.55l2.43-17H34.48a10,10,0,0,1-10-10V29a10,10,0,0,1,10-10H52.54a10,10,0,0,1,10,10V44.78a10,10,0,0,1-10,10H47.8L37.64,73.14A2.24,2.24,0,0,1,35.69,74.29ZM34.48,23.46A5.5,5.5,0,0,0,29,29V44.78a5.5,5.5,0,0,0,5.49,5.49h4a2.23,2.23,0,0,1,2.21,2.55l-1.07,7.49,4.91-8.89a2.23,2.23,0,0,1,2-1.15h6.05A5.5,5.5,0,0,0,58,44.78V29a5.5,5.5,0,0,0-5.49-5.49Z"/><path class="cls-1" d="M34,15.08a2.23,2.23,0,0,1-2-1.15l-2.79-5a2.23,2.23,0,1,1,3.91-2.17l2.79,5a2.23,2.23,0,0,1-2,3.32Z"/><path class="cls-1" d="M53,15.08a2.23,2.23,0,0,1-2-3.32l2.79-5a2.23,2.23,0,1,1,3.91,2.17l-2.79,5A2.23,2.23,0,0,1,53,15.08Z"/><path class="cls-1" d="M43.51,14a2.23,2.23,0,0,1-2.23-2.23V2.23a2.23,2.23,0,0,1,4.47,0v9.5A2.23,2.23,0,0,1,43.51,14Z"/><path class="cls-3" d="M148.38,62.55v2.27h-2.74v8.53H143V64.82h-1.15V62.55H143v-.31c0-2.64,1.13-4,3.73-4a9,9,0,0,1,2.2.39v2.31h-.35a3,3,0,0,0-1.59-.39,1.27,1.27,0,0,0-1.38,1.34v.66Z"/><path class="cls-3" d="M149.81,69.58v-7h2.62v6.76c0,1,.47,1.88,1.63,1.88a5.25,5.25,0,0,0,2.68-.89V62.55h2.62v10.8h-2.53v-.68a7.32,7.32,0,0,1-3.15.93A3.82,3.82,0,0,1,149.81,69.58Z"/><path class="cls-3" d="M171.9,66.34v7h-2.62V66.61c0-1-.47-1.88-1.63-1.88a5.25,5.25,0,0,0-2.68.89v7.73h-2.62V62.55h2.53v.7a7.32,7.32,0,0,1,3.15-.93A3.75,3.75,0,0,1,171.9,66.34Z"/><path class="cls-3" d="M191.07,64.8h-.35a3.87,3.87,0,0,0-3.09.54v8H185V62.55h2.53v.7a7.74,7.74,0,0,1,3.52-.93Z"/><path class="cls-3" d="M198.3,72.36a4.06,4.06,0,0,1-2.91,1.24,3.59,3.59,0,0,1-3.79-3.54,3.45,3.45,0,0,1,3.11-3.5l3.54-.51c-.08-1.05-1.73-1.42-2.45-1.42a7.09,7.09,0,0,0-2.86.64h-.29V62.86a11.65,11.65,0,0,1,3.19-.54c2.47,0,4.88.93,5,3.65v7.38H198.3Zm-2.43-1.07a4.65,4.65,0,0,0,2.33-.74V68.11c-.89.16-1.79.25-2.7.43a1.34,1.34,0,0,0-1.26,1.36C194.24,70.92,195,71.29,195.87,71.29Z"/><path class="cls-3" d="M206.54,61.5h-2.64V58.92h2.64Zm0,11.85h-2.62V62.55h2.62Z"/><path class="cls-3" d="M209.12,73V70.73h.33a9.08,9.08,0,0,0,3,.58c.74,0,2-.14,2-1.15,0-.56-.8-.82-1.3-1a25.82,25.82,0,0,1-2.62-1,3,3,0,0,1-1.52-2.7c0-2.06,1.92-3.11,3.71-3.09a11.17,11.17,0,0,1,3.32.58V65.1h-.35a8.09,8.09,0,0,0-2.64-.49c-.41,0-1.57.08-1.57.7,0,.33.6.66,1.05.8a24.49,24.49,0,0,1,2.76,1.05A3,3,0,0,1,216.93,70c0,2.47-2.29,3.55-4.55,3.55A10.77,10.77,0,0,1,209.12,73Z"/><path class="cls-3" d="M221.94,61.5H219.3V58.92h2.64Zm0,11.85H219.3V62.55h2.62Z"/><path class="cls-3" d="M234.78,66.34v7h-2.62V66.61c0-1-.47-1.88-1.63-1.88a5.25,5.25,0,0,0-2.68.89v7.73h-2.62V62.55h2.53v.7a7.33,7.33,0,0,1,3.15-.93A3.75,3.75,0,0,1,234.78,66.34Z"/><path class="cls-3" d="M246.86,72.81c0,3.83-1.92,5.46-5.54,5.48a8.85,8.85,0,0,1-3.17-.68V75.35h.33a7.85,7.85,0,0,0,2.86.64c1.59,0,2.91-.93,2.91-2.31v-.62a4.05,4.05,0,0,1-2.08.52,5.11,5.11,0,0,1-3.85-1.67,5.85,5.85,0,0,1-1.15-3.77,6.92,6.92,0,0,1,.82-3.5,5,5,0,0,1,4.55-2.31h1.67A2.67,2.67,0,0,1,246.86,65Zm-3.24-8.16h-.93a2.86,2.86,0,0,0-2.06.7,4,4,0,0,0-.78,2.78,4.08,4.08,0,0,0,.54,2.21,2.13,2.13,0,0,0,2,1,7.46,7.46,0,0,0,1.9-.25V65.29A.62.62,0,0,0,243.62,64.65Z"/><path class="cls-4" d="M178.62,73.66a5,5,0,0,1-4.48-2.32,7.11,7.11,0,0,1-.83-3.51A6.25,6.25,0,0,1,174.47,64a4.93,4.93,0,0,1,3.8-1.68,3.69,3.69,0,0,1,2.1.54V58.23H183V71a2.62,2.62,0,0,1-2.61,2.64Zm1.74-8.71a8,8,0,0,0-1.85-.27,2.29,2.29,0,0,0-2,1,4.07,4.07,0,0,0-.48,2.16,4.22,4.22,0,0,0,.75,2.82,2.91,2.91,0,0,0,2.07.66h.87a.62.62,0,0,0,.62-.6Z"/></g></g></svg>