<svg width="870" height="261" viewBox="0 0 870 261" fill="none" xmlns="http://www.w3.org/2000/svg">
<path d="M9.7603 178.263C3.82322 170.899 0.854675 160.332 0.854675 146.563V111.496C0.854675 97.5858 3.82322 86.9838 9.7603 79.6899C15.6974 72.3959 25.2108 68.749 38.3004 68.749C50.7122 68.749 59.7931 71.718 65.5432 77.656C71.2933 83.594 74.1566 92.6413 74.1333 104.798V114.511H48.2228V104.026C48.5636 99.729 47.8285 95.4145 46.084 91.4724C45.2478 90.2582 44.1 89.2917 42.7611 88.6746C41.4223 88.0576 39.9419 87.8127 38.4757 87.9657C36.8723 87.7969 35.255 88.1105 33.8309 88.8664C32.4067 89.6223 31.2405 90.7861 30.4817 92.2088C28.7149 97.2108 27.9871 102.521 28.3429 107.814V150.806C27.9478 155.909 28.7398 161.034 30.657 165.78C31.4466 167.113 32.5949 168.199 33.971 168.912C35.3471 169.624 36.8958 169.937 38.4406 169.812C39.9452 169.986 41.4681 169.725 42.829 169.06C44.1898 168.395 45.3316 167.354 46.1191 166.06C47.7205 162.25 48.4166 158.121 48.1527 153.997V141.513H74.0631V152.664C74.0631 164.681 71.1647 173.798 65.3679 180.017C59.5711 186.235 50.5486 189.356 38.3004 189.38C25.2108 189.38 15.6974 185.674 9.7603 178.263Z" fill="#212121"/>
<path d="M235.416 70.4321H262.94V81.9692C272.289 73.0622 281.733 68.6086 291.269 68.6086C294.166 68.4362 297.058 69.0175 299.664 70.2958C302.269 71.5741 304.499 73.5058 306.135 75.9026C309.631 81.4018 311.368 87.8362 311.114 94.3479V187.486H283.626V99.8183C283.834 96.9424 283.239 94.0652 281.908 91.5074C281.181 90.5883 280.235 89.866 279.157 89.4066C278.079 88.9472 276.904 88.7652 275.737 88.8774C270.995 89.5282 266.547 91.5516 262.94 94.6985V187.486H235.416V70.4321Z" fill="#212121"/>
<path d="M338.077 178.264C332.139 170.899 329.171 160.379 329.171 146.703V111.636C329.171 97.7262 332.139 87.1242 338.077 79.8303C344.014 72.5363 353.527 68.8893 366.617 68.8893C379.028 68.8893 388.109 71.8584 393.859 77.7964C399.609 83.7344 402.473 92.7817 402.449 104.938V114.652H376.539V104.027C376.88 99.7292 376.145 95.4146 374.4 91.4725C373.564 90.2583 372.416 89.2918 371.077 88.6748C369.738 88.0577 368.258 87.8128 366.792 87.9658C365.189 87.797 363.571 88.1106 362.147 88.8665C360.723 89.6224 359.557 90.7862 358.798 92.209C357.031 97.2109 356.303 102.521 356.659 107.814V150.806C356.264 155.909 357.056 161.034 358.973 165.78C359.763 167.113 360.911 168.199 362.287 168.912C363.663 169.625 365.212 169.937 366.757 169.812C368.261 169.986 369.784 169.725 371.145 169.06C372.506 168.395 373.648 167.354 374.435 166.06C376.037 162.251 376.733 158.121 376.469 153.997V141.513H402.379V152.665C402.379 164.681 399.481 173.798 393.684 180.017C387.887 186.235 378.865 189.356 366.617 189.38C353.527 189.38 344.014 185.674 338.077 178.264Z" fill="#212121"/>
<path d="M421.593 28.9128H449.116V51.8116H421.593V28.9128ZM421.593 70.4322H449.116V187.486H421.593V70.4322Z" fill="#212121"/>
<path d="M477.692 178.474C471.614 171.25 468.576 160.554 468.576 146.387V111.531C468.576 97.2233 471.649 86.4928 477.797 79.3391C483.944 72.1854 493.423 68.6086 506.232 68.6086C519.462 68.6086 528.811 72.3257 534.281 79.7599C539.75 87.1941 542.485 98.4039 542.485 113.389V130.186H495.994V153.261C495.674 157.53 496.548 161.803 498.518 165.604C499.394 166.893 500.595 167.928 501.998 168.605C503.401 169.282 504.958 169.577 506.512 169.461C508.001 169.585 509.496 169.301 510.836 168.64C512.176 167.979 513.312 166.966 514.12 165.709C515.9 162.174 516.699 158.226 516.435 154.277V144.353H542.345V152.454C542.345 164.47 539.306 173.623 533.229 179.911C527.152 186.2 518.188 189.356 506.337 189.38C493.364 189.38 483.816 185.744 477.692 178.474ZM516.259 116.615V105.464C516.562 100.999 515.793 96.5262 514.015 92.4191C513.078 91.1696 511.857 90.1609 510.453 89.4762C509.049 88.7915 507.502 88.4505 505.94 88.4814C504.379 88.5122 502.847 88.914 501.471 89.6535C500.095 90.393 498.915 91.4491 498.027 92.7347C496.173 97.7771 495.408 103.155 495.783 108.515V116.615H516.259Z" fill="#212121"/>
<path d="M561.208 70.4321H588.731V81.9692C598.081 73.0621 607.524 68.6086 617.061 68.6086C619.964 68.43 622.863 69.0083 625.475 70.2869C628.087 71.5654 630.322 73.5005 631.962 75.9026C635.458 81.4018 637.195 87.8362 636.941 94.3478V187.486H609.418V99.8183C609.625 96.9423 609.031 94.0652 607.7 91.5074C606.973 90.5883 606.027 89.866 604.949 89.4066C603.871 88.9471 602.695 88.7652 601.529 88.8774C596.787 89.5281 592.338 91.5515 588.731 94.6985V187.486H561.208V70.4321Z" fill="#212121"/>
<path d="M663.868 178.264C657.931 170.899 654.963 160.379 654.963 146.703V111.636C654.963 97.7262 657.931 87.1242 663.868 79.8303C669.805 72.5363 679.319 68.8893 692.408 68.8893C704.82 68.8893 713.901 71.8584 719.651 77.7964C725.401 83.7344 728.265 92.7817 728.241 104.938V114.652H702.331V104.027C702.671 99.7292 701.936 95.4146 700.192 91.4725C699.356 90.2583 698.208 89.2918 696.869 88.6748C695.53 88.0577 694.05 87.8128 692.584 87.9658C690.963 87.7991 689.33 88.1248 687.898 88.9005C686.466 89.6763 685.3 90.8659 684.554 92.3142C682.788 97.3161 682.06 102.626 682.416 107.919V150.806C682.021 155.909 682.813 161.034 684.73 165.78C685.519 167.113 686.668 168.199 688.044 168.912C689.42 169.625 690.969 169.937 692.513 169.812C694.018 169.986 695.541 169.725 696.902 169.06C698.263 168.395 699.404 167.354 700.192 166.06C701.793 162.251 702.489 158.121 702.225 153.997V141.513H728.136V152.665C728.136 164.681 725.238 173.798 719.441 180.017C713.644 186.235 704.633 189.356 692.408 189.38C679.319 189.38 669.805 185.674 663.868 178.264Z" fill="#212121"/>
<path d="M747.28 28.9128H774.803V51.8116H747.28V28.9128ZM747.28 70.4322H774.803V187.486H747.28V70.4322Z" fill="#212121"/>
<path d="M806.113 185.242C802.289 182.559 799.222 178.935 797.207 174.722C795.141 170.608 794.061 166.07 794.051 161.466C793.694 153.561 795.868 145.748 800.257 139.164C804.357 133.417 809.765 128.729 816.035 125.487C824.162 121.447 832.508 117.865 841.034 114.757V104.658C841.277 100.613 840.618 96.5641 839.106 92.8049C838.382 91.5421 837.308 90.5159 836.014 89.8501C834.72 89.1843 833.261 88.9073 831.813 89.0527C825.595 89.0527 822.358 93.3776 822.101 102.028L821.68 109.041L795.559 108.024C795.956 94.5348 799.299 84.5758 805.587 78.1468C811.874 71.7179 821.353 68.5151 834.022 68.5385C845.498 68.5385 854.007 71.6828 859.546 77.9715C865.086 84.2602 867.856 93.1322 867.856 104.587V158.731C867.944 168.349 868.623 177.952 869.889 187.486H845.346C843.991 180.192 843.044 174.593 842.506 170.689C841.004 175.761 838.171 180.337 834.302 183.944C830.226 187.64 824.864 189.591 819.366 189.38C814.623 189.431 809.984 187.983 806.113 185.242V185.242ZM836.09 166.411C838.055 164.918 839.792 163.146 841.244 161.151V128.328C835.351 131.514 829.953 135.543 825.221 140.286C821.666 144.254 819.782 149.443 819.962 154.768C819.764 158.357 820.643 161.923 822.486 165.008C823.226 166.191 824.263 167.16 825.493 167.818C826.723 168.476 828.104 168.801 829.499 168.76C831.887 168.744 834.2 167.916 836.055 166.411H836.09Z" fill="#212121"/>
<path d="M185.068 74.4649H121.747C118.176 74.4649 114.64 75.1706 111.343 76.5416C108.045 77.9126 105.051 79.9219 102.533 82.4538C100.014 84.9858 98.0206 87.9906 96.6669 91.2956C95.3131 94.6006 94.6257 98.1405 94.6442 101.712V157.048C94.6442 160.608 95.3453 164.132 96.7073 167.421C98.0693 170.71 100.066 173.698 102.582 176.215C105.099 178.732 108.087 180.729 111.375 182.091C114.663 183.454 118.188 184.155 121.747 184.155H135.771L125.989 252.711L163.856 184.155H185.068C188.627 184.155 192.151 183.454 195.44 182.091C198.728 180.729 201.716 178.732 204.232 176.215C206.749 173.698 208.745 170.71 210.107 167.421C211.469 164.132 212.17 160.608 212.17 157.048V101.712C212.189 98.1405 211.502 94.6006 210.148 91.2956C208.794 87.9906 206.801 84.9858 204.282 82.4538C201.764 79.9219 198.77 77.9126 195.472 76.5416C192.175 75.1706 188.639 74.4649 185.068 74.4649Z" fill="#FFD740"/>
<path d="M125.989 260.531C124.869 260.527 123.762 260.283 122.743 259.815C121.725 259.348 120.818 258.667 120.084 257.82C119.35 256.973 118.806 255.979 118.488 254.904C118.17 253.829 118.086 252.699 118.241 251.589L126.761 191.975H121.747C112.448 191.975 103.53 188.28 96.9545 181.704C90.3792 175.127 86.6852 166.208 86.6852 156.908V101.712C86.6852 92.4117 90.3792 83.4923 96.9545 76.9159C103.53 70.3396 112.448 66.645 121.747 66.645H185.068C194.367 66.645 203.285 70.3396 209.86 76.9159C216.435 83.4923 220.129 92.4117 220.129 101.712V157.048C220.129 166.348 216.435 175.268 209.86 181.844C203.285 188.42 194.367 192.115 185.068 192.115H168.449L132.826 256.498C132.147 257.717 131.156 258.733 129.955 259.442C128.753 260.151 127.384 260.527 125.989 260.531V260.531ZM121.747 82.2849C119.208 82.2941 116.697 82.8044 114.356 83.7865C112.015 84.7687 109.892 86.2034 108.107 88.0083C106.322 89.8132 104.91 91.9528 103.954 94.3044C102.997 96.6561 102.515 99.1734 102.533 101.712V157.048C102.542 162.151 104.573 167.042 108.181 170.651C111.789 174.259 116.68 176.291 121.782 176.3H135.806C136.929 176.298 138.039 176.538 139.06 177.004C140.081 177.47 140.991 178.15 141.726 178.998C142.461 179.847 143.005 180.843 143.32 181.921C143.636 182.998 143.716 184.131 143.555 185.242L139.803 211.507L157.019 180.332C157.709 179.085 158.727 178.049 159.963 177.339C161.199 176.628 162.606 176.269 164.031 176.3H185.243C190.297 176.217 195.116 174.153 198.663 170.553C202.211 166.952 204.203 162.103 204.211 157.048V101.712C204.202 96.609 202.171 91.7176 198.563 88.1092C194.956 84.5008 190.065 82.4695 184.963 82.4603L121.747 82.2849Z" fill="#212121"/>
<path d="M120.064 52.8988C118.638 52.9299 117.232 52.5707 115.996 51.8599C114.76 51.1491 113.742 50.1138 113.051 48.8661L103.269 31.3326C102.77 30.4323 102.452 29.4424 102.335 28.4194C102.218 27.3964 102.304 26.3604 102.587 25.3705C102.87 24.3806 103.346 23.4562 103.986 22.65C104.627 21.8439 105.42 21.1718 106.32 20.6722C107.22 20.1725 108.21 19.8551 109.232 19.738C110.255 19.6209 111.291 19.7065 112.281 19.9897C113.271 20.273 114.195 20.7485 115.001 21.3891C115.807 22.0297 116.479 22.8227 116.978 23.723L126.761 41.2565C127.436 42.4608 127.78 43.8225 127.759 45.203C127.737 46.5835 127.351 47.9337 126.638 49.1164C125.926 50.2991 124.913 51.2721 123.703 51.9364C122.493 52.6008 121.128 52.9328 119.748 52.8988H120.064Z" fill="#212121"/>
<path d="M186.681 52.8988C185.301 52.9328 183.936 52.6008 182.726 51.9364C181.516 51.2721 180.503 50.2991 179.791 49.1164C179.079 47.9337 178.692 46.5835 178.671 45.203C178.649 43.8225 178.993 42.4608 179.669 41.2565L189.451 23.723C189.95 22.8227 190.622 22.0297 191.428 21.3891C192.234 20.7485 193.159 20.273 194.148 19.9897C195.138 19.7065 196.174 19.6209 197.197 19.738C198.22 19.8551 199.209 20.1725 200.109 20.6722C201.01 21.1718 201.802 21.8439 202.443 22.65C203.083 23.4562 203.559 24.3806 203.842 25.3705C204.125 26.3604 204.211 27.3964 204.094 28.4194C203.977 29.4424 203.659 30.4323 203.16 31.3326L193.378 48.8661C192.713 50.0669 191.745 51.0717 190.569 51.7796C189.394 52.4874 188.053 52.8734 186.681 52.8988V52.8988Z" fill="#212121"/>
<path d="M153.407 49.1114C151.334 49.1114 149.345 48.2876 147.879 46.821C146.413 45.3545 145.589 43.3655 145.589 41.2915V7.83749C145.589 5.75886 146.414 3.76536 147.884 2.29555C149.354 0.825733 151.347 0 153.425 0C155.503 0 157.496 0.825733 158.966 2.29555C160.436 3.76536 161.261 5.75886 161.261 7.83749V41.1512C161.28 42.1928 161.09 43.2277 160.704 44.195C160.317 45.1624 159.741 46.0427 159.009 46.7842C158.277 47.5258 157.405 48.1136 156.443 48.5133C155.481 48.9129 154.449 49.1163 153.407 49.1114V49.1114Z" fill="#212121"/>
</svg>
