<svg xmlns="http://www.w3.org/2000/svg" viewBox="0 0 322.89 101.98"><defs><style>.cls-1{fill:#4d4d4d;}.cls-2{fill:#ffe161;}.cls-3{fill:#999;}.cls-4{fill:#d9d9d9;}</style></defs><title>logo</title><g id="Layer_2" data-name="Layer 2"><g id="Layer_2-2" data-name="Layer 2"><path class="cls-1" d="M3.31,66.21Q0,62.11,0,54.44V41.35Q0,33.6,3.31,29.54t10.61-4.06q6.92,0,10.12,3.31t3.2,10.08v3.61H17.6V38.64A9.64,9.64,0,0,0,16.81,34,3,3,0,0,0,14,32.7a3,3,0,0,0-3,1.58q-.79,1.58-.79,5.79V56q0,4.06.87,5.57a3.07,3.07,0,0,0,2.9,1.5,3,3,0,0,0,2.86-1.39,9.93,9.93,0,0,0,.75-4.48V52.56h9.63v4.14q0,6.7-3.23,10.16T13.92,70.31Q6.62,70.31,3.31,66.21Z"/><path class="cls-1" d="M87.14,26.15H97.37v4.29q5.19-5,10.53-5a6.24,6.24,0,0,1,5.53,2.71A11.91,11.91,0,0,1,115.28,35v34.6H105V37.06a5.78,5.78,0,0,0-.64-3.08,2.54,2.54,0,0,0-2.29-1q-1.81,0-4.74,2.11V69.63H87.14Z"/><path class="cls-1" d="M125.28,66.21Q122,62.11,122,54.44V41.35q0-7.75,3.31-11.81t10.61-4.06q6.92,0,10.12,3.31t3.2,10.08v3.61h-9.63V38.64a9.64,9.64,0,0,0-.79-4.66A3,3,0,0,0,136,32.7a3,3,0,0,0-3,1.58q-.79,1.58-.79,5.79V56q0,4.06.87,5.57a3.07,3.07,0,0,0,2.9,1.5,3,3,0,0,0,2.86-1.39,9.92,9.92,0,0,0,.75-4.48V52.56h9.63v4.14q0,6.7-3.23,10.16t-10.08,3.46Q128.59,70.31,125.28,66.21Z"/><path class="cls-1" d="M156.27,10.73H166.5v8.5H156.27Zm0,15.42H166.5V69.63H156.27Z"/><path class="cls-1" d="M177.18,66.28q-3.39-4-3.39-11.92V41.42q0-8,3.42-12t10.57-4q7.37,0,10.42,4.14t3,12.49v6.24H184v8.58a8.58,8.58,0,0,0,.94,4.59,3.3,3.3,0,0,0,3,1.43,3.07,3.07,0,0,0,2.82-1.39,8.22,8.22,0,0,0,.87-4.25V53.61h9.63v3q0,6.7-3.39,10.19t-10,3.5Q180.57,70.31,177.18,66.28Zm14.37-23V39.17a10.46,10.46,0,0,0-.83-4.85,3.66,3.66,0,0,0-5.94.11Q184,36,184,40.3v3Z"/><path class="cls-1" d="M208.17,26.15H218.4v4.29q5.19-5,10.53-5a6.24,6.24,0,0,1,5.53,2.71A11.91,11.91,0,0,1,236.31,35v34.6H226.08V37.06a5.78,5.78,0,0,0-.64-3.08,2.54,2.54,0,0,0-2.29-1q-1.81,0-4.74,2.11V69.63H208.17Z"/><path class="cls-1" d="M246.31,66.21Q243,62.11,243,54.44V41.35q0-7.75,3.31-11.81t10.61-4.06q6.92,0,10.12,3.31t3.2,10.08v3.61H260.6V38.64a9.64,9.64,0,0,0-.79-4.66A3,3,0,0,0,257,32.7a3,3,0,0,0-3,1.58q-.79,1.58-.79,5.79V56q0,4.06.87,5.57a3.07,3.07,0,0,0,2.9,1.5,3,3,0,0,0,2.86-1.39,9.92,9.92,0,0,0,.75-4.48V52.56h9.63v4.14q0,6.7-3.23,10.16t-10.08,3.46Q249.62,70.31,246.31,66.21Z"/><path class="cls-1" d="M277.3,10.73h10.23v8.5H277.3Zm0,15.42h10.23V69.63H277.3Z"/><path class="cls-1" d="M299.15,68.8a10.1,10.1,0,0,1-3.31-3.87A11,11,0,0,1,294.68,60,13.81,13.81,0,0,1,297,51.69a16.52,16.52,0,0,1,5.87-5.08,90.45,90.45,0,0,1,9.29-4V38.87a10.16,10.16,0,0,0-.71-4.4,2.79,2.79,0,0,0-2.75-1.39q-3.46,0-3.61,4.81L305,40.52l-9.7-.38Q295.5,32.62,299,29t10.57-3.57q6.39,0,9.48,3.5t3.08,9.89V59a87.14,87.14,0,0,0,.75,10.68h-9.18q-.75-4.06-1.05-6.24a11,11,0,0,1-3,4.93,7.8,7.8,0,0,1-5.53,2A8.36,8.36,0,0,1,299.15,68.8Zm11.13-7a9.41,9.41,0,0,0,1.92-2V47.67a25.62,25.62,0,0,0-5.94,4.48,7.68,7.68,0,0,0-2,5.38,6.7,6.7,0,0,0,.94,3.8,3,3,0,0,0,2.59,1.39A3.94,3.94,0,0,0,310.29,61.81Z"/><path class="cls-2" d="M68.43,27.65H44.91A10.07,10.07,0,0,0,34.84,37.71V58.33A10.07,10.07,0,0,0,44.91,68.39h5.21L46.48,93.86,60.55,68.39h7.88A10.07,10.07,0,0,0,78.5,58.33V37.71A10.07,10.07,0,0,0,68.43,27.65Z"/><path class="cls-1" d="M46.48,96.77a2.91,2.91,0,0,1-2.88-3.32L46.77,71.3H44.91a13,13,0,0,1-13-13V37.71a13,13,0,0,1,13-13H68.43a13,13,0,0,1,13,13V58.33a13,13,0,0,1-13,13H62.27L49,95.27A2.91,2.91,0,0,1,46.48,96.77ZM44.91,30.56a7.16,7.16,0,0,0-7.15,7.15V58.33a7.16,7.16,0,0,0,7.15,7.15h5.21A2.91,2.91,0,0,1,53,68.81l-1.39,9.76L58,67a2.91,2.91,0,0,1,2.55-1.5h7.88a7.16,7.16,0,0,0,7.15-7.15V37.71a7.16,7.16,0,0,0-7.15-7.15Z"/><path class="cls-1" d="M44.3,19.65a2.91,2.91,0,0,1-2.55-1.5L38.12,11.6a2.91,2.91,0,0,1,5.09-2.83l3.64,6.55a2.91,2.91,0,0,1-2.54,4.32Z"/><path class="cls-1" d="M69,19.65a2.91,2.91,0,0,1-2.54-4.32l3.64-6.55a2.91,2.91,0,0,1,5.09,2.83l-3.64,6.55A2.91,2.91,0,0,1,69,19.65Z"/><path class="cls-1" d="M56.67,18.19a2.91,2.91,0,0,1-2.91-2.91V2.91a2.91,2.91,0,0,1,5.82,0V15.28A2.91,2.91,0,0,1,56.67,18.19Z"/><path class="cls-3" d="M193.28,81.47v3h-3.57V95.54H186.3V84.43h-1.5v-3h1.5v-.4c0-3.44,1.48-5.21,4.86-5.21a11.74,11.74,0,0,1,2.87.51v3h-.46a3.93,3.93,0,0,0-2.07-.51,1.66,1.66,0,0,0-1.8,1.75v.86Z"/><path class="cls-3" d="M195.13,90.63V81.47h3.41v8.81c0,1.34.62,2.44,2.12,2.44a6.84,6.84,0,0,0,3.49-1.15V81.47h3.41V95.54h-3.3v-.89a9.54,9.54,0,0,1-4.11,1.21A5,5,0,0,1,195.13,90.63Z"/><path class="cls-3" d="M223.91,86.41v9.13H220.5V86.76c0-1.34-.62-2.44-2.12-2.44a6.84,6.84,0,0,0-3.49,1.15V95.54h-3.41V81.47h3.3v.91a9.54,9.54,0,0,1,4.11-1.21A4.88,4.88,0,0,1,223.91,86.41Z"/><path class="cls-3" d="M248.88,84.4h-.46a5,5,0,0,0-4,.7V95.54H241V81.47h3.3v.91a10.08,10.08,0,0,1,4.59-1.21Z"/><path class="cls-3" d="M258.3,94.25a5.29,5.29,0,0,1-3.79,1.61,4.68,4.68,0,0,1-4.94-4.62,4.5,4.5,0,0,1,4.05-4.56l4.62-.67c-.11-1.37-2.25-1.85-3.19-1.85a9.24,9.24,0,0,0-3.73.83h-.38V81.88a15.17,15.17,0,0,1,4.16-.7c3.22,0,6.36,1.21,6.47,4.75v9.61H258.3Zm-3.17-1.4a6.05,6.05,0,0,0,3-1V88.72c-1.15.21-2.34.32-3.52.56A1.74,1.74,0,0,0,253,91.06C253,92.37,254,92.86,255.13,92.86Z"/><path class="cls-3" d="M269,80.1H265.6V76.75H269Zm0,15.44H265.6V81.47H269Z"/><path class="cls-3" d="M272.39,95.14v-3h.43a11.83,11.83,0,0,0,3.95.75c1,0,2.58-.19,2.58-1.5,0-.72-1-1.07-1.69-1.32a33.63,33.63,0,0,1-3.41-1.34,3.9,3.9,0,0,1-2-3.52c0-2.68,2.5-4.05,4.83-4a14.55,14.55,0,0,1,4.32.75V84.8H281a10.54,10.54,0,0,0-3.44-.64c-.54,0-2,.11-2,.91,0,.43.78.86,1.37,1a31.89,31.89,0,0,1,3.6,1.37,3.93,3.93,0,0,1,2.12,3.73c0,3.22-3,4.62-5.93,4.62A14,14,0,0,1,272.39,95.14Z"/><path class="cls-3" d="M289.09,80.1h-3.44V76.75h3.44Zm0,15.44h-3.41V81.47h3.41Z"/><path class="cls-3" d="M305.82,86.41v9.13h-3.41V86.76c0-1.34-.62-2.44-2.12-2.44a6.84,6.84,0,0,0-3.49,1.15V95.54h-3.41V81.47h3.3v.91a9.54,9.54,0,0,1,4.11-1.21A4.88,4.88,0,0,1,305.82,86.41Z"/><path class="cls-3" d="M321.55,94.84c0,5-2.5,7.11-7.22,7.14a11.53,11.53,0,0,1-4.13-.89v-3h.43a10.23,10.23,0,0,0,3.73.83c2.07,0,3.79-1.21,3.79-3v-.81a5.28,5.28,0,0,1-2.71.67,6.66,6.66,0,0,1-5-2.17,7.63,7.63,0,0,1-1.5-4.91A9,9,0,0,1,310,84.19a6.56,6.56,0,0,1,5.93-3h2.17a3.48,3.48,0,0,1,3.46,3.44Zm-4.21-10.63h-1.21a3.73,3.73,0,0,0-2.68.91c-.91.89-1,2.42-1,3.62a5.31,5.31,0,0,0,.7,2.87,2.78,2.78,0,0,0,2.55,1.26,9.72,9.72,0,0,0,2.47-.32V85A.81.81,0,0,0,317.33,84.21Z"/><path class="cls-4" d="M232.66,95.95a6.49,6.49,0,0,1-5.84-3,9.26,9.26,0,0,1-1.08-4.57,8.14,8.14,0,0,1,1.51-5,6.42,6.42,0,0,1,4.95-2.19,4.81,4.81,0,0,1,2.73.7V75.84h3.43V92.52A3.41,3.41,0,0,1,235,95.95Zm2.27-11.35a10.36,10.36,0,0,0-2.41-.35,3,3,0,0,0-2.59,1.3,5.31,5.31,0,0,0-.62,2.81c0,1.16.11,2.78,1,3.68a3.79,3.79,0,0,0,2.7.86h1.13a.81.81,0,0,0,.81-.78Z"/></g></g></svg>